<svg width="132" height="24" viewBox="0 0 132 24" fill="none" xmlns="http://www.w3.org/2000/svg">
<path d="M39.2857 12C39.2857 18.6271 34.0087 24 27.4999 24C20.9904 24 15.7142 18.6271 15.7142 12C15.7142 5.37209 20.9908 0 27.4999 0C34.0087 0 39.2857 5.3725 39.2857 12Z" fill="#DA552F"/>
<path d="M29.072 12H25.733V8.4H29.072C29.3042 8.4 29.5341 8.44656 29.7485 8.53702C29.963 8.62748 30.1579 8.76006 30.3221 8.92721C30.4862 9.09435 30.6165 9.29278 30.7053 9.51117C30.7941 9.72956 30.8399 9.96362 30.8399 10.2C30.8399 10.4364 30.7941 10.6704 30.7053 10.8888C30.6165 11.1072 30.4862 11.3056 30.3221 11.4728C30.1579 11.6399 29.963 11.7725 29.7485 11.863C29.5341 11.9534 29.3042 12 29.072 12ZM29.072 6H23.3759V18H25.733V14.4H29.072C31.3502 14.4 33.197 12.5196 33.197 10.2C33.197 7.88044 31.3502 6 29.072 6Z" fill="white"/>
<path d="M51.6669 10.5334C51.6669 9.87305 51.1687 9.47291 50.5213 9.47291H48.7861V11.5815H50.5217C51.1691 11.5815 51.6669 11.1814 51.6669 10.5334ZM47.1428 15.9999V8H50.7523C52.4307 8 53.344 9.15486 53.344 10.5334C53.344 11.9 52.419 13.0544 50.7523 13.0544H48.7861V15.9999H47.1428ZM54.3444 15.9999V10.1677H55.8128V10.9335C56.2179 10.4386 56.9011 10.0265 57.5956 10.0265V11.4871C57.4908 11.4637 57.3638 11.4523 57.1905 11.4523C56.7044 11.4523 56.0559 11.7346 55.8128 12.1007V15.9999H54.3444ZM62.5388 13.0073C62.5388 12.1237 62.0285 11.3579 61.1031 11.3579C60.1885 11.3579 59.6803 12.1237 59.6803 13.0077C59.6803 13.9027 60.1885 14.6685 61.1031 14.6685C62.0285 14.6685 62.5388 13.9027 62.5388 13.0073ZM58.1522 13.0073C58.1522 11.3936 59.2631 10.0265 61.1031 10.0265C62.9548 10.0265 64.0656 11.3932 64.0656 13.0073C64.0656 14.6213 62.9548 15.9999 61.1031 15.9999C59.2631 15.9999 58.1522 14.6213 58.1522 13.0073ZM69.0105 14.0205V12.0059C68.7674 11.6283 68.2354 11.3579 67.7489 11.3579C66.9049 11.3579 66.326 12.0293 66.326 13.0077C66.326 13.9967 66.9049 14.6685 67.7489 14.6685C68.2354 14.6685 68.7674 14.3981 69.0105 14.0205ZM69.0105 15.9999V15.1282C68.5703 15.6933 67.9694 15.9999 67.2862 15.9999C65.8863 15.9999 64.8101 14.9164 64.8101 13.0073C64.8101 11.158 65.8633 10.0265 67.2862 10.0265C67.9456 10.0265 68.5703 10.3097 69.0105 10.8982V8H70.4914V15.9999H69.0105ZM75.7256 15.9999V15.1397C75.3443 15.564 74.6732 15.9999 73.7586 15.9999C72.5325 15.9999 71.9541 15.3166 71.9541 14.2089V10.1677H73.4229V13.62C73.4229 14.4096 73.8279 14.6685 74.4527 14.6685C75.0194 14.6685 75.4713 14.3505 75.7256 14.0201V10.1677H77.1952V15.9999H75.7256ZM78.2988 13.0073C78.2988 11.2639 79.5483 10.0265 81.2613 10.0265C82.4069 10.0265 83.1009 10.5334 83.4714 11.0517L82.5104 11.9702C82.2448 11.5696 81.8397 11.3579 81.3307 11.3579C80.4395 11.3579 79.8151 12.0178 79.8151 13.0077C79.8151 13.9967 80.4395 14.6685 81.3307 14.6685C81.8397 14.6685 82.2448 14.433 82.5104 14.0439L83.4714 14.9632C83.1009 15.4815 82.4069 15.9999 81.2613 15.9999C79.5483 15.9999 78.2988 14.7629 78.2988 13.0073ZM84.735 14.433V11.4757H83.8095V10.1677H84.735V8.61231H86.205V10.1677H87.338V11.4757H86.205V14.0324C86.205 14.3977 86.3892 14.6685 86.7136 14.6685C86.9329 14.6685 87.1425 14.586 87.2223 14.4921L87.5355 15.6342C87.3158 15.8353 86.922 15.9999 86.3086 15.9999C85.2787 15.9999 84.735 15.4581 84.735 14.433ZM96.7512 15.9999V12.5476H93.1059V15.9999H91.4638V8H93.1059V11.0866H96.7512V8.00041H98.4058V15.9999H96.7512ZM103.665 15.9999V15.1397C103.283 15.564 102.612 15.9999 101.698 15.9999C100.471 15.9999 99.8928 15.3166 99.8928 14.2089V10.1677H101.362V13.62C101.362 14.4096 101.767 14.6685 102.392 14.6685C102.958 14.6685 103.41 14.3505 103.665 14.0201V10.1677H105.134V15.9999H103.665ZM110.367 15.9999V12.4187C110.367 11.6291 109.963 11.3583 109.337 11.3583C108.759 11.3583 108.32 11.6882 108.065 12.0182V16.0003H106.596V10.1677H108.065V10.8982C108.424 10.4743 109.118 10.0265 110.02 10.0265C111.258 10.0265 111.849 10.7332 111.849 11.8405V15.9999H110.367H110.367ZM113.6 14.433V11.4757H112.675V10.1677H113.6V8.61231H115.07V10.1677H116.203V11.4757H115.07V14.0324C115.07 14.3977 115.254 14.6685 115.579 14.6685C115.798 14.6685 116.007 14.586 116.088 14.4921L116.4 15.6342C116.181 15.8353 115.787 15.9999 115.173 15.9999C114.144 15.9999 113.6 15.4581 113.6 14.433Z" fill="#DA552F"/>
</svg>
