<svg width="120" height="15" viewBox="0 0 120 15" fill="none" xmlns="http://www.w3.org/2000/svg">
<path id="Union" fill-rule="evenodd" clip-rule="evenodd" d="M22.2398 14.0702C22.4061 14.0702 22.5409 13.9388 22.5409 13.7768V11.6062L23.0227 11.6062H23.5793L23.5812 11.6062C24.0557 11.6067 24.5109 11.789 24.8486 12.1138L26.3492 13.5571C26.6874 13.8823 27.1434 14.0646 27.6186 14.0646H30.0303C30.2986 14.0646 30.4329 13.7487 30.2433 13.5639L27.6264 11.0147C28.1849 10.7444 28.7002 10.3858 29.1495 9.94809C30.2394 8.8864 30.8517 7.44646 30.8517 5.94501C30.8517 4.44357 30.2394 3.00362 29.1495 1.94194C28.0668 0.887176 26.6007 0.291604 25.0703 0.28389V0.283814L25.0412 0.283814L25.0402 0.283814L22.2404 0.283814L22.2398 0.283814L19.5298 0.283813C19.3635 0.283813 19.2287 0.41514 19.2287 0.57714L19.2287 13.7768C19.2287 13.9388 19.3635 14.0702 19.5298 14.0702H22.2398ZM24.7692 8.90761H23.0227L22.5409 8.90761L22.5409 2.98242L25.0703 2.98242V2.97916C25.8669 2.98682 26.6292 3.29842 27.1931 3.84773C27.7641 4.40397 28.0849 5.15838 28.0849 5.94501C28.0849 6.73165 27.7641 7.48606 27.1931 8.04229C26.6292 8.59161 25.8669 8.9032 25.0703 8.91087V8.90761L24.7692 8.90761ZM45.9679 14.0115C46.1342 14.0115 46.269 13.8802 46.269 13.7182V6.94231L49.7164 12.898L49.8381 13.1346C49.9464 13.3451 50.2525 13.3517 50.3703 13.146L54.0377 6.74003V13.7182C54.0377 13.8802 54.1725 14.0115 54.3388 14.0115H57.0488C57.2151 14.0115 57.3499 13.8802 57.3499 13.7182V0.57714C57.3499 0.41514 57.2151 0.283814 57.0488 0.283814L54.3388 0.283813L54.3363 0.283824L54.1246 0.283824C54.0152 0.283824 53.9144 0.341597 53.8613 0.434743L50.0791 7.06945L46.2969 0.434763C46.2438 0.341617 46.143 0.283844 46.0336 0.283844L45.9722 0.283844L45.9679 0.283814L43.2578 0.283813C43.0915 0.283813 42.9567 0.415141 42.9567 0.57714V13.7182C42.9567 13.8802 43.0915 14.0115 43.2578 14.0115H45.9679ZM65.0584 5.44636V2.98242L71.7431 2.98242C71.9094 2.98242 72.0442 2.85109 72.0442 2.68909V0.57714C72.0442 0.41514 71.9094 0.283813 71.7431 0.283813L64.7573 0.283814L64.3759 0.283814L62.0473 0.283814C61.881 0.283814 61.7462 0.41514 61.7462 0.57714V5.44636C61.7462 5.60836 61.881 5.73968 62.0473 5.73968L64.7573 5.73968C64.9236 5.73968 65.0584 5.60836 65.0584 5.44636ZM63.3119 14.0702H62.0473C61.881 14.0702 61.7462 13.9388 61.7462 13.7768V8.90761C61.7462 8.74561 61.881 8.61428 62.0473 8.61428H64.7573C64.9236 8.61428 65.0584 8.74561 65.0584 8.90761V11.3716H71.7431C71.9094 11.3716 72.0442 11.5029 72.0442 11.6649V13.7768C72.0442 13.9388 71.9094 14.0702 71.7431 14.0702H64.7573H63.3119ZM65.0584 6.03301C65.0584 5.87101 65.1932 5.73968 65.3595 5.73968H67.7082C67.8745 5.73968 68.0093 5.87101 68.0093 6.03301V8.32096C68.0093 8.48296 67.8745 8.61428 67.7082 8.61428H65.3595C65.1932 8.61428 65.0584 8.48296 65.0584 8.32096V6.03301ZM82.8917 0.283813C83.4565 0.283814 83.9888 0.541149 84.3304 0.979339L88.5517 6.39386L92.8975 0.966883C93.2449 0.533039 93.7806 0.282439 94.3454 0.289562L94.6533 0.293445L89.1503 7.16165L94.5619 14.1032H94.2598C93.6952 14.1032 93.163 13.846 92.8214 13.408L88.5415 7.92142L84.2421 13.2874C83.8947 13.7211 83.3591 13.9715 82.7945 13.9644L82.4924 13.9606L87.9429 7.15406L82.5837 0.283813L82.8917 0.283813ZM119.199 0.283813H109.383C109.216 0.283813 109.081 0.41514 109.081 0.57714V0.929132C109.081 1.09113 109.216 1.22246 109.383 1.22246L113.779 1.22246V13.7768C113.779 13.9388 113.914 14.0702 114.08 14.0702H114.502C114.668 14.0702 114.803 13.9388 114.803 13.7768V1.22246H119.199C119.365 1.22246 119.5 1.09113 119.5 0.929132V0.57714C119.5 0.41514 119.365 0.283813 119.199 0.283813ZM97.5793 0.283813C97.413 0.283813 97.2782 0.41514 97.2782 0.57714V13.7768C97.2782 13.9388 97.413 14.0702 97.5793 14.0702H98.302H102.638H102.879C102.911 14.0702 102.943 14.0651 102.972 14.0558C103.856 13.9797 104.688 13.6036 105.321 12.9876C106.032 12.2945 106.432 11.3545 106.432 10.3742C106.432 9.39402 106.032 8.45395 105.321 7.76084C105.109 7.55499 104.876 7.37594 104.625 7.22592V7.12805C104.876 6.97803 105.109 6.79897 105.321 6.59313C106.032 5.90001 106.432 4.95994 106.432 3.97973C106.432 2.99951 106.032 2.05944 105.321 1.36632C104.609 0.673203 103.644 0.283814 102.638 0.283814L98.302 0.283813H97.5793ZM102.638 6.67833H102.771C103.458 6.64629 104.11 6.36623 104.599 5.89011C105.119 5.38345 105.411 4.69626 105.411 3.97973C105.411 3.26319 105.119 2.57601 104.599 2.06934C104.079 1.56267 103.374 1.27803 102.638 1.27803V1.28112H98.302V6.67833H102.638ZM102.771 7.67564C103.458 7.70768 104.11 7.98774 104.599 8.46386C105.119 8.97052 105.411 9.65771 105.411 10.3742C105.411 11.0908 105.119 11.778 104.599 12.2846C104.11 12.7607 103.458 13.0408 102.771 13.0728H98.302V7.67564H102.638H102.771ZM38.561 5.4464C38.561 5.6084 38.4261 5.73973 38.2598 5.73973L35.5498 5.73973C35.3835 5.73973 35.2487 5.6084 35.2487 5.4464L35.2487 0.577185C35.2487 0.415185 35.3835 0.283858 35.5498 0.283858L38.2598 0.283859C38.4261 0.283859 38.561 0.415185 38.561 0.577185V5.4464ZM38.2598 14.0113C38.4261 14.0113 38.561 13.88 38.561 13.718V8.90744C38.561 8.74544 38.4261 8.61412 38.2598 8.61412H35.5498C35.3835 8.61412 35.2487 8.74544 35.2487 8.90744L35.2487 13.718C35.2487 13.88 35.3835 14.0113 35.5498 14.0113H38.2598ZM0.801113 5.73973C0.634813 5.73973 0.5 5.87106 0.5 6.03305V8.321C0.5 8.483 0.634813 8.61433 0.801113 8.61433H3.1498C3.3161 8.61433 3.45091 8.483 3.45091 8.321V6.03305C3.45091 5.87106 3.3161 5.73973 3.1498 5.73973H0.801113ZM6.76325 8.61426H3.75212C3.58582 8.61426 3.45101 8.74559 3.45101 8.90759V13.7768C3.45101 13.9388 3.58582 14.0701 3.75212 14.0701H6.46214C6.62844 14.0701 6.76325 13.9388 6.76325 13.7768V11.6355C6.76325 11.4735 6.89807 11.3422 7.06437 11.3422H9.14205C11.594 11.3422 13.0874 9.79139 13.6738 9.02835C13.8116 8.84902 13.6765 8.61426 13.4465 8.61426H6.76325ZM3.75212 0.283813C3.58582 0.283813 3.45101 0.41514 3.45101 0.57714V5.44636C3.45101 5.60836 3.58582 5.73968 3.75212 5.73968H6.46214C6.62844 5.73968 6.76325 5.60836 6.76325 5.44636V3.27574C6.76325 3.11374 6.89807 2.98242 7.06437 2.98242H9.38294C11.0203 2.98242 11.4061 4.70803 11.495 5.39947C11.5151 5.55652 11.6498 5.68102 11.8123 5.68102H14.5202C14.691 5.68102 14.8283 5.54312 14.8119 5.37747C14.5886 3.12792 12.8755 0.283813 10.2261 0.283813H6.76325H3.75212Z" fill="white"/>
</svg>
