<svg width="132" height="24" viewBox="0 0 132 24" fill="none" xmlns="http://www.w3.org/2000/svg">
<path d="M68.1873 5.93115H67.4623L62.1802 15.0094L56.898 5.93115H56.173L54.1533 17.9833H56.173L57.4158 10.3659L61.8694 17.9833H62.6462L67.0481 10.4703L68.1873 17.9833H70.207L68.1873 5.93115Z" fill="#051D40"/>
<path d="M80.4607 7.18336C79.8911 6.60945 79.1661 6.24423 78.3893 6.08771C77.3018 5.93119 76.2661 5.87901 75.1785 5.93119H72.1232V17.9834H74.1946V12.6616H74.816C76.0071 12.7138 77.1982 12.6094 78.3375 12.4529C79.1661 12.2964 79.8911 11.9312 80.5125 11.3573C81.0304 10.7834 81.3411 10.0529 81.2893 9.27032C81.2893 8.9051 81.2375 8.48771 81.0822 8.17466C80.9786 7.80945 80.7714 7.4964 80.4607 7.18336ZM79.2179 9.27032C79.2179 9.58336 79.1143 9.94858 78.9071 10.2094C78.7 10.4703 78.3893 10.679 78.0268 10.7834C77.4054 10.9399 76.7321 10.9921 76.1107 10.9921H74.1428V7.65293H76.2143C76.8357 7.65293 77.4571 7.7051 78.0786 7.80945C78.3893 7.91379 78.7 8.12249 78.9071 8.38336C79.1143 8.64423 79.2179 8.95727 79.2179 9.27032Z" fill="#051D40"/>
<path d="M83.1536 5.93115V17.9833H85.1732V5.93115H83.1536Z" fill="#051D40"/>
<path d="M44.6765 5.93115V17.9833H53.0659V16.2616H46.6962V12.6094H53.1176V10.9398H46.6962V10.679V7.65289H53.1176V5.93115H44.6765Z" fill="#051D40"/>
<path d="M99.1036 5.93115V17.9833H107.493V16.2616H101.123V12.6094H107.545V10.9398H101.123V10.679V7.65289H107.545V5.93115H99.1036Z" fill="#051D40"/>
<path d="M97.9126 17.9833L93.7697 12.2964L93.8733 12.2442C94.4429 12.0355 94.909 11.7746 95.3751 11.3572C95.8929 10.7833 96.2036 10.0529 96.1519 9.27028C96.1519 8.90507 96.1001 8.48767 95.9447 8.17463C95.7894 7.80941 95.5822 7.49637 95.3233 7.2355C94.7536 6.66159 94.0286 6.29637 93.2518 6.13985C92.1643 5.98333 91.0768 5.93115 90.0411 5.93115H86.9857V17.9833H89.0054V12.6616H89.6268C90.3 12.6616 90.9215 12.6616 91.4393 12.6094L95.3751 17.9833H97.9126ZM89.0572 10.9398V7.65289H91.1286C91.75 7.60072 92.3715 7.70507 92.9929 7.80941C93.3036 7.91376 93.6143 8.12246 93.8215 8.38333C94.0286 8.6442 94.1322 8.95724 94.1322 9.27028C94.1322 9.58333 94.0286 9.94854 93.8215 10.2094C93.6143 10.4703 93.3036 10.679 92.9929 10.7833C92.3715 10.9398 91.6982 10.992 91.0768 10.992L89.0572 10.9398Z" fill="#051D40"/>
<path d="M24.7907 12.9225H32.3514L33.2836 11.7225L32.5068 10.679H24.7907V9.79202V8.17463H30.4871L30.2282 7.75724L28.8818 5.93115H22.0978V18.0355H24.7907V14.0181V12.9225Z" fill="#67B230"/>
<path d="M40.9997 14.4355L39.239 12.192L37.7372 14.1746L40.7408 18.0355H43.7962L40.9997 14.4355Z" fill="#67B230"/>
<path d="M43.4855 5.93115H40.4301L37.6854 9.47898L39.1872 11.4616L43.4855 5.93115Z" fill="#67B230"/>
<path d="M35.8211 8.69637L33.7496 5.93115H30.6943L35.1997 11.7746L30.3835 18.0355H33.4389L36.7014 13.7572L38.2032 11.7746L35.8211 8.69637Z" fill="#67B230"/>
</svg>
