<svg width="185" height="107" viewBox="0 0 185 107" fill="none" xmlns="http://www.w3.org/2000/svg"><path d="M30.365 6.047c-.071-.716-.376-1.272-.914-1.669-.54-.396-1.27-.595-2.193-.595-.628 0-1.157.09-1.59.267-.431.171-.763.411-.994.719a1.73 1.73 0 00-.337 1.047c-.012.326.056.61.204.853.154.242.364.452.63.63.267.172.575.323.924.453.349.124.722.23 1.118.32l1.634.39c.793.178 1.52.414 2.184.71.663.296 1.237.66 1.722 1.092.485.432.861.941 1.127 1.527.273.586.412 1.258.418 2.015-.006 1.113-.29 2.078-.852 2.895-.557.81-1.362 1.44-2.415 1.89-1.048.444-2.311.666-3.791.666-1.468 0-2.746-.224-3.835-.674-1.083-.45-1.93-1.116-2.54-1.998-.603-.888-.92-1.985-.95-3.294h3.72c.042.61.216 1.12.524 1.527.314.403.731.708 1.252.915.527.201 1.122.302 1.784.302.652 0 1.217-.095 1.696-.284.486-.19.861-.453 1.128-.79.266-.338.4-.725.4-1.163 0-.409-.122-.752-.365-1.03-.236-.278-.586-.515-1.047-.71a10.653 10.653 0 00-1.678-.533l-1.98-.497c-1.533-.373-2.743-.956-3.631-1.75-.888-.792-1.329-1.86-1.323-3.204-.006-1.101.287-2.063.879-2.885.598-.823 1.418-1.465 2.46-1.927C24.773.8 25.958.57 27.283.57c1.35 0 2.527.23 3.534.692 1.012.462 1.799 1.104 2.361 1.927.563.822.852 1.775.87 2.858h-3.684zm12.662 13.22c-1.403 0-2.61-.285-3.622-.853a5.837 5.837 0 01-2.326-2.433c-.545-1.053-.817-2.299-.817-3.737 0-1.403.272-2.634.817-3.693.544-1.06 1.31-1.885 2.3-2.477.994-.592 2.16-.888 3.497-.888.9 0 1.737.145 2.512.435a5.574 5.574 0 012.042 1.287c.586.574 1.042 1.297 1.367 2.167.326.864.489 1.876.489 3.036v1.038H37.77v-2.343h7.955c0-.545-.119-1.027-.355-1.447a2.544 2.544 0 00-.986-.986c-.414-.242-.896-.364-1.447-.364-.574 0-1.083.133-1.527.4-.438.26-.781.612-1.03 1.056A2.984 2.984 0 0040 10.93v2.228c0 .675.124 1.258.373 1.75.254.49.612.87 1.074 1.136.461.266 1.009.4 1.642.4.42 0 .805-.06 1.154-.178.35-.119.648-.296.897-.533.248-.237.438-.527.568-.87l3.498.23a4.775 4.775 0 01-1.092 2.203c-.545.62-1.249 1.106-2.113 1.455-.858.344-1.85.515-2.974.515zm14.888 0c-1.397 0-2.598-.297-3.604-.888a6.001 6.001 0 01-2.309-2.486c-.532-1.06-.799-2.279-.799-3.658 0-1.397.27-2.622.808-3.675a6.002 6.002 0 012.317-2.477c1-.598 2.19-.897 3.57-.897 1.189 0 2.23.216 3.124.648.894.432 1.601 1.039 2.122 1.82.521.781.808 1.699.861 2.752h-3.569c-.1-.68-.367-1.228-.799-1.642-.426-.42-.985-.63-1.678-.63-.586 0-1.097.16-1.535.479-.432.314-.77.772-1.013 1.376-.242.604-.364 1.335-.364 2.193 0 .87.119 1.61.356 2.22.242.609.583 1.074 1.02 1.393.439.32.95.48 1.536.48.432 0 .82-.09 1.163-.267.35-.177.637-.435.862-.772.23-.344.381-.755.452-1.234h3.57c-.06 1.041-.344 1.959-.853 2.752-.503.787-1.198 1.403-2.086 1.846-.888.444-1.939.666-3.152.666zm17.256-6.073v-7.83h3.782V19h-3.63v-2.477h-.143a4.027 4.027 0 01-1.536 1.927c-.71.485-1.577.728-2.6.728-.912 0-1.714-.208-2.407-.622-.692-.414-1.234-1.003-1.624-1.767-.385-.763-.58-1.678-.586-2.743V5.364h3.782v8.007c.006.805.222 1.442.648 1.91.426.467.997.7 1.713.7a2.72 2.72 0 001.279-.31 2.44 2.44 0 00.958-.941c.249-.415.37-.927.364-1.536zM81.978 19V5.364h3.667v2.379h.142c.249-.846.666-1.486 1.252-1.918a3.29 3.29 0 012.024-.657c.19 0 .394.012.613.036.218.024.41.056.577.097v3.356a4.942 4.942 0 00-.737-.142 6.62 6.62 0 00-.861-.062c-.557 0-1.054.121-1.492.364a2.68 2.68 0 00-1.03.994c-.248.427-.373.918-.373 1.474V19h-3.782zm15.81.266c-1.403 0-2.61-.284-3.623-.852a5.837 5.837 0 01-2.326-2.433c-.544-1.053-.816-2.299-.816-3.737 0-1.403.272-2.634.817-3.693.544-1.06 1.31-1.885 2.299-2.477.994-.592 2.16-.888 3.498-.888.9 0 1.737.145 2.512.435a5.576 5.576 0 012.042 1.287c.586.574 1.042 1.297 1.367 2.167.326.864.489 1.876.489 3.036v1.038H92.532v-2.343h7.955c0-.545-.119-1.027-.356-1.447a2.54 2.54 0 00-.985-.986c-.414-.242-.897-.364-1.447-.364-.574 0-1.083.133-1.527.4a2.8 2.8 0 00-1.03 1.056 2.984 2.984 0 00-.382 1.465v2.228c0 .675.125 1.258.373 1.75.255.49.613.87 1.074 1.136.462.266 1.01.4 1.643.4.42 0 .805-.06 1.154-.178.35-.119.648-.296.897-.533.248-.237.438-.527.568-.87l3.498.23a4.785 4.785 0 01-1.092 2.203c-.545.62-1.249 1.106-2.113 1.455-.858.344-1.85.515-2.974.515zm16.848 4.848c-.48 0-.93-.039-1.35-.116a4.93 4.93 0 01-1.03-.275l.853-2.823c.444.136.843.21 1.198.222.361.012.672-.071.932-.249.267-.177.483-.48.648-.905l.222-.577-4.891-14.027h3.977l2.823 10.014h.142l2.85-10.014h4.004l-5.3 15.11a6.356 6.356 0 01-1.039 1.917c-.432.55-.979.974-1.642 1.27-.663.302-1.462.453-2.397.453zm18.035-4.848c-1.379 0-2.572-.293-3.578-.879a6.019 6.019 0 01-2.317-2.468c-.544-1.059-.817-2.287-.817-3.684 0-1.409.273-2.64.817-3.693a5.947 5.947 0 012.317-2.468c1.006-.592 2.199-.888 3.578-.888s2.569.296 3.569.888a5.93 5.93 0 012.326 2.468c.544 1.053.817 2.284.817 3.693 0 1.397-.273 2.625-.817 3.684a6 6 0 01-2.326 2.468c-1 .586-2.19.88-3.569.88zm.018-2.93c.627 0 1.151-.177 1.571-.532.42-.361.737-.852.95-1.474.219-.621.328-1.329.328-2.121 0-.794-.109-1.5-.328-2.122-.213-.622-.53-1.113-.95-1.474-.42-.361-.944-.542-1.571-.542-.634 0-1.166.18-1.598.542-.426.361-.749.852-.968 1.474-.213.621-.32 1.328-.32 2.122 0 .793.107 1.5.32 2.121.219.622.542 1.113.968 1.474.432.355.964.533 1.598.533zm17.897-3.142v-7.83h3.782V19h-3.631v-2.477h-.142a4.017 4.017 0 01-1.536 1.927c-.71.485-1.577.728-2.601.728-.911 0-1.713-.208-2.406-.622-.692-.414-1.234-1.003-1.624-1.767-.385-.763-.58-1.678-.586-2.743V5.364h3.782v8.007c.006.805.222 1.442.648 1.91.426.467.997.7 1.713.7.456 0 .882-.103 1.279-.31.396-.213.716-.527.958-.941.249-.415.37-.927.364-1.536zM157.394 19V5.364h3.666v2.379h.142c.249-.846.666-1.486 1.252-1.918a3.291 3.291 0 012.024-.657c.189 0 .394.012.613.036.219.024.411.056.577.097v3.356a4.974 4.974 0 00-.737-.142 6.626 6.626 0 00-.861-.062c-.557 0-1.054.121-1.492.364a2.684 2.684 0 00-1.03.994c-.248.427-.373.918-.373 1.474V19h-3.781zM8.538 34.364v2.84H.12v-2.84h8.417zM2.048 48V33.378c0-.988.192-1.808.577-2.459.39-.651.923-1.14 1.598-1.465.675-.325 1.441-.488 2.3-.488.58 0 1.11.044 1.589.133.485.089.846.169 1.083.24l-.675 2.84a4.71 4.71 0 00-.55-.133 3.437 3.437 0 00-.657-.062c-.557 0-.945.13-1.163.391-.22.255-.329.613-.329 1.074V48H2.048zm8.8 0V34.364h3.782V48h-3.782zm1.9-15.394a2.055 2.055 0 01-1.447-.56c-.397-.378-.595-.831-.595-1.358 0-.52.198-.967.595-1.34a2.037 2.037 0 011.447-.569c.562 0 1.042.19 1.438.569.403.373.604.82.604 1.34 0 .527-.201.98-.604 1.359-.396.372-.876.559-1.438.559zm8.694 7.51V48H17.66V34.364h3.604v2.406h.16a3.805 3.805 0 011.518-1.883c.71-.467 1.571-.7 2.583-.7.947 0 1.773.206 2.477.62.705.415 1.252 1.007 1.643 1.776.39.764.586 1.675.586 2.735V48h-3.782v-8.008c.006-.834-.208-1.485-.64-1.953-.432-.473-1.026-.71-1.784-.71-.509 0-.959.11-1.35.328a2.29 2.29 0 00-.905.96c-.213.413-.322.914-.328 1.5zM37.1 48.258c-.87 0-1.645-.152-2.326-.453a3.745 3.745 0 01-1.616-1.359c-.39-.603-.586-1.355-.586-2.255 0-.757.14-1.393.417-1.908a3.38 3.38 0 011.137-1.243 5.511 5.511 0 011.633-.71c.616-.16 1.261-.273 1.936-.338.793-.083 1.432-.16 1.917-.23.486-.078.838-.19 1.057-.338.219-.148.328-.367.328-.657v-.053c0-.563-.177-.997-.532-1.305-.35-.308-.847-.462-1.492-.462-.68 0-1.222.151-1.624.453a2.084 2.084 0 00-.8 1.119l-3.497-.285a4.752 4.752 0 011.047-2.148c.521-.61 1.193-1.077 2.015-1.403.829-.331 1.788-.497 2.877-.497.757 0 1.483.089 2.175.266a5.691 5.691 0 011.855.826c.545.373.974.852 1.288 1.438.313.58.47 1.276.47 2.087V48h-3.586v-1.891h-.107a3.847 3.847 0 01-.879 1.127c-.367.32-.808.572-1.323.755-.515.178-1.11.267-1.784.267zm1.083-2.61c.556 0 1.048-.11 1.474-.33.426-.224.76-.526 1.003-.905.243-.378.364-.807.364-1.287V41.68a2.027 2.027 0 01-.488.213c-.202.06-.43.115-.684.169-.255.047-.509.092-.763.133l-.693.097a4.68 4.68 0 00-1.163.311 1.86 1.86 0 00-.772.577c-.184.237-.276.533-.276.888 0 .515.187.909.56 1.18.379.267.858.4 1.438.4zm13.312-5.532V48h-3.782V34.364h3.605v2.406h.16a3.805 3.805 0 011.518-1.883c.71-.467 1.571-.7 2.583-.7.947 0 1.773.206 2.477.62.704.415 1.252 1.007 1.642 1.776.391.764.586 1.675.586 2.735V48h-3.782v-8.008c.006-.834-.207-1.485-.639-1.953-.432-.473-1.027-.71-1.784-.71-.51 0-.96.11-1.35.328a2.29 2.29 0 00-.905.96c-.213.413-.323.914-.329 1.5zm17.931 8.15c-1.397 0-2.598-.296-3.604-.887a6.002 6.002 0 01-2.308-2.486c-.533-1.06-.8-2.279-.8-3.658 0-1.397.27-2.622.809-3.675a6.002 6.002 0 012.317-2.477c1-.598 2.19-.897 3.569-.897 1.19 0 2.23.216 3.125.648.893.432 1.6 1.039 2.121 1.82.521.781.808 1.699.861 2.752h-3.568c-.101-.68-.367-1.228-.8-1.642-.425-.42-.985-.63-1.677-.63-.586 0-1.098.16-1.536.479-.432.314-.77.772-1.012 1.376-.243.604-.364 1.335-.364 2.193 0 .87.118 1.61.355 2.22.242.609.583 1.073 1.02 1.393.439.32.95.48 1.537.48.432 0 .82-.09 1.163-.267.349-.177.636-.435.86-.772.232-.343.383-.755.454-1.234h3.569c-.06 1.041-.344 1.959-.853 2.752-.503.787-1.198 1.403-2.086 1.846-.888.444-1.938.666-3.152.666zM77.938 48V34.364h3.782V48h-3.782zm1.9-15.394a2.055 2.055 0 01-1.447-.56c-.397-.378-.595-.831-.595-1.358 0-.52.198-.967.595-1.34a2.037 2.037 0 011.447-.569c.562 0 1.041.19 1.438.569.403.373.604.82.604 1.34 0 .527-.201.98-.604 1.359-.397.372-.876.559-1.438.559zm8.8 15.651c-.87 0-1.645-.15-2.326-.452a3.744 3.744 0 01-1.616-1.359c-.39-.603-.586-1.355-.586-2.255 0-.757.14-1.393.418-1.908a3.38 3.38 0 011.136-1.243 5.511 5.511 0 011.633-.71c.616-.16 1.261-.273 1.936-.338.793-.083 1.432-.16 1.917-.23.486-.078.838-.19 1.057-.338.219-.148.328-.367.328-.657v-.053c0-.563-.177-.997-.532-1.305-.35-.308-.847-.462-1.492-.462-.68 0-1.222.151-1.624.453a2.083 2.083 0 00-.8 1.119l-3.497-.285a4.752 4.752 0 011.047-2.148c.521-.61 1.193-1.077 2.016-1.403.828-.331 1.787-.497 2.876-.497.758 0 1.483.089 2.175.266a5.691 5.691 0 011.856.826c.544.373.973.852 1.287 1.438.314.58.47 1.276.47 2.087V48h-3.586v-1.891h-.107a3.847 3.847 0 01-.879 1.127c-.367.32-.808.572-1.323.755-.514.178-1.11.267-1.784.267zm1.083-2.61c.556 0 1.048-.11 1.474-.328.426-.225.76-.527 1.003-.906.243-.378.364-.807.364-1.287V41.68a2.03 2.03 0 01-.488.213c-.201.06-.43.115-.684.169-.254.047-.509.092-.763.133l-.693.097a4.68 4.68 0 00-1.163.311 1.86 1.86 0 00-.772.577c-.184.237-.275.533-.275.888 0 .515.186.909.559 1.18.379.267.858.4 1.438.4zm13.312-15.829V48h-3.782V29.818h3.782zm16.149 4.546v2.84h-8.416v-2.84h8.416zM112.692 48V33.378c0-.988.193-1.808.578-2.459.39-.651.923-1.14 1.598-1.465.674-.325 1.441-.488 2.299-.488.58 0 1.11.044 1.589.133.485.089.846.169 1.083.24l-.675 2.84a4.702 4.702 0 00-.55-.133 3.436 3.436 0 00-.657-.062c-.556 0-.944.13-1.163.391-.219.255-.328.613-.328 1.074V48h-3.774zm17.545-5.806v-7.83h3.782V48h-3.631v-2.477h-.142a4.029 4.029 0 01-1.536 1.927c-.71.485-1.577.728-2.601.728-.911 0-1.713-.208-2.406-.622-.692-.414-1.234-1.003-1.624-1.767-.385-.763-.58-1.678-.586-2.743v-8.682h3.782v8.007c.006.805.222 1.442.648 1.91.426.467.997.7 1.713.7.456 0 .882-.103 1.279-.31.396-.213.716-.527.958-.941.249-.414.37-.926.364-1.536zm14.061-7.83v2.84h-8.212v-2.84h8.212zm-6.348-3.267h3.782V43.81c0 .349.053.621.16.816.106.19.254.323.444.4.195.077.42.115.674.115.178 0 .355-.014.533-.044.178-.036.314-.062.408-.08l.595 2.814c-.189.06-.456.128-.799.204-.343.083-.76.134-1.252.151-.911.036-1.71-.085-2.397-.364a3.349 3.349 0 01-1.589-1.296c-.379-.586-.565-1.326-.559-2.22v-13.21zm17.556 11.097v-7.83h3.782V48h-3.631v-2.477h-.142a4.029 4.029 0 01-1.536 1.927c-.71.485-1.577.728-2.601.728-.912 0-1.714-.208-2.406-.622-.693-.414-1.234-1.003-1.625-1.767-.385-.763-.58-1.678-.586-2.743v-8.682h3.782v8.007c.006.805.222 1.442.648 1.91.426.467.998.7 1.714.7.455 0 .882-.103 1.278-.31a2.44 2.44 0 00.959-.941c.248-.414.37-.926.364-1.536zM162.313 48V34.364h3.666v2.379h.143c.248-.846.665-1.486 1.251-1.918a3.29 3.29 0 012.024-.657c.19 0 .394.012.613.036.219.023.411.056.577.097v3.356a4.914 4.914 0 00-.737-.142 6.603 6.603 0 00-.861-.062c-.556 0-1.053.121-1.491.364a2.678 2.678 0 00-1.03.994c-.249.427-.373.918-.373 1.474V48h-3.782zm15.809.266c-1.403 0-2.61-.284-3.622-.852a5.841 5.841 0 01-2.326-2.433c-.545-1.053-.817-2.299-.817-3.737 0-1.403.272-2.634.817-3.693.545-1.06 1.311-1.885 2.299-2.477.995-.592 2.161-.888 3.498-.888.9 0 1.737.145 2.513.435a5.576 5.576 0 012.042 1.287c.586.575 1.041 1.297 1.367 2.167.325.864.488 1.876.488 3.036v1.039h-11.515v-2.344h7.955c0-.545-.118-1.027-.355-1.447a2.542 2.542 0 00-.986-.986c-.414-.242-.896-.364-1.447-.364-.574 0-1.083.133-1.527.4-.438.26-.781.612-1.029 1.056a2.98 2.98 0 00-.382 1.465v2.228c0 .675.124 1.258.373 1.75.254.49.612.87 1.074 1.136.462.266 1.009.4 1.642.4.421 0 .805-.06 1.154-.178.35-.119.649-.296.897-.533.249-.237.438-.527.568-.87l3.498.23a4.766 4.766 0 01-1.092 2.202c-.544.622-1.249 1.107-2.113 1.456-.858.344-1.849.515-2.974.515zM2.35 77V58.818h3.782v6.836h.115c.166-.367.406-.74.72-1.118.319-.385.733-.705 1.242-.96.515-.26 1.154-.39 1.918-.39.994 0 1.912.26 2.752.781.84.515 1.512 1.293 2.015 2.335.503 1.036.755 2.335.755 3.898 0 1.52-.246 2.805-.737 3.853-.485 1.041-1.148 1.831-1.989 2.37-.834.533-1.77.799-2.805.799-.734 0-1.358-.121-1.873-.364a3.874 3.874 0 01-1.252-.915 4.644 4.644 0 01-.746-1.127h-.169V77H2.35zm3.702-6.818c0 .81.112 1.518.337 2.122.225.603.55 1.074.977 1.411.426.332.944.497 1.553.497.616 0 1.137-.168 1.563-.506.426-.343.749-.816.968-1.42.225-.61.337-1.311.337-2.104 0-.787-.11-1.48-.329-2.078-.219-.597-.541-1.065-.967-1.402-.426-.338-.95-.506-1.572-.506-.615 0-1.136.162-1.562.488-.42.326-.743.787-.968 1.385-.225.598-.337 1.302-.337 2.113zm14.016 11.932c-.48 0-.93-.039-1.35-.116a4.908 4.908 0 01-1.03-.275l.853-2.823c.444.136.843.21 1.198.222.361.012.672-.071.932-.249.267-.177.483-.48.649-.905l.221-.577-4.891-14.027h3.977l2.823 10.014h.142l2.85-10.014h4.004l-5.3 15.11a6.347 6.347 0 01-1.039 1.917c-.432.55-.98.974-1.642 1.27-.663.302-1.462.453-2.397.453zm25.353-18.75v2.84h-8.212v-2.84h8.212zm-6.348-3.267h3.782V72.81c0 .349.053.621.16.816.106.19.254.323.444.4.195.077.42.115.674.115.178 0 .355-.015.533-.044.178-.036.314-.062.408-.08l.595 2.814c-.19.06-.455.128-.799.204a6.4 6.4 0 01-1.252.151c-.911.036-1.71-.085-2.397-.364a3.345 3.345 0 01-1.589-1.296c-.378-.586-.565-1.325-.559-2.22v-13.21zM47.884 77V63.364h3.667v2.379h.142c.248-.846.666-1.486 1.252-1.918a3.29 3.29 0 012.024-.657c.19 0 .393.012.612.036.22.023.412.056.577.097v3.356a4.935 4.935 0 00-.736-.142 6.608 6.608 0 00-.862-.062c-.556 0-1.053.121-1.491.364a2.68 2.68 0 00-1.03.994c-.248.427-.373.918-.373 1.474V77h-3.782zm13.728.257c-.87 0-1.646-.15-2.326-.452a3.745 3.745 0 01-1.616-1.359c-.39-.603-.586-1.355-.586-2.255 0-.757.139-1.393.417-1.908.278-.515.657-.93 1.137-1.243a5.511 5.511 0 011.633-.71c.616-.16 1.26-.273 1.935-.338.793-.083 1.433-.16 1.918-.23.485-.078.838-.19 1.056-.338.22-.148.329-.367.329-.657v-.053c0-.563-.178-.998-.533-1.305-.349-.308-.846-.462-1.491-.462-.68 0-1.222.151-1.625.453a2.083 2.083 0 00-.799 1.118l-3.498-.284a4.754 4.754 0 011.048-2.148c.52-.61 1.193-1.077 2.015-1.403.829-.331 1.788-.497 2.877-.497.757 0 1.482.089 2.175.266a5.691 5.691 0 011.855.826c.545.373.974.852 1.287 1.438.314.58.47 1.276.47 2.087V77h-3.586v-1.891h-.106a3.845 3.845 0 01-.88 1.128c-.366.32-.807.57-1.322.754-.515.178-1.11.266-1.784.266zm1.083-2.61c.556 0 1.047-.11 1.473-.328.426-.225.76-.527 1.004-.906.242-.378.364-.807.364-1.287V70.68a2.027 2.027 0 01-.489.213c-.2.06-.429.115-.683.169-.255.047-.51.091-.764.133l-.692.097a4.68 4.68 0 00-1.163.311 1.86 1.86 0 00-.773.577c-.183.237-.275.533-.275.888 0 .515.187.909.56 1.18.378.267.858.4 1.438.4zm14.555 2.575c-1.036 0-1.974-.266-2.814-.8-.835-.538-1.498-1.328-1.989-2.37-.485-1.047-.728-2.331-.728-3.852 0-1.563.252-2.862.755-3.898.503-1.042 1.171-1.82 2.006-2.335.84-.52 1.76-.78 2.761-.78.763 0 1.4.13 1.909.39.515.254.929.574 1.243.959.32.378.562.751.728 1.118h.115v-6.836h3.773V77h-3.728v-2.184h-.16a4.87 4.87 0 01-.755 1.127c-.32.368-.737.672-1.252.915-.509.243-1.13.364-1.864.364zm1.198-3.01c.61 0 1.125-.165 1.545-.497.426-.337.752-.808.977-1.411.23-.604.346-1.311.346-2.122 0-.811-.112-1.515-.337-2.113-.225-.598-.55-1.06-.977-1.385-.426-.326-.944-.488-1.554-.488-.621 0-1.145.168-1.571.506-.426.337-.749.805-.968 1.402-.219.598-.328 1.29-.328 2.078 0 .793.11 1.494.328 2.104.225.604.548 1.077.968 1.42.426.338.95.506 1.571.506zM88.118 77V63.364h3.783V77h-3.782zm1.9-15.394a2.055 2.055 0 01-1.447-.56c-.396-.378-.594-.831-.594-1.358 0-.52.198-.968.594-1.34a2.037 2.037 0 011.448-.569c.562 0 1.041.19 1.438.569.402.373.603.82.603 1.34 0 .527-.2.98-.603 1.358-.397.373-.876.56-1.438.56zm8.694 7.51V77H94.93V63.364h3.604v2.405h.16a3.806 3.806 0 011.518-1.882c.711-.467 1.572-.7 2.584-.7.947 0 1.773.206 2.477.62.704.415 1.252 1.007 1.642 1.776.391.764.586 1.675.586 2.734V77h-3.782v-8.008c.006-.834-.207-1.485-.639-1.953-.432-.473-1.027-.71-1.784-.71-.509 0-.959.11-1.35.328a2.29 2.29 0 00-.905.96c-.213.413-.323.913-.329 1.5zm17.913 13.282c-1.225 0-2.275-.169-3.151-.506-.87-.332-1.563-.784-2.078-1.359a4.176 4.176 0 01-1.003-1.935l3.498-.47c.107.272.275.526.506.763.231.237.536.426.914.568.385.148.853.222 1.403.222.823 0 1.5-.201 2.033-.604.539-.396.808-1.062.808-1.997v-2.495h-.16a3.585 3.585 0 01-.745 1.074c-.332.338-.758.613-1.279.826-.521.213-1.142.32-1.864.32-1.024 0-1.956-.237-2.797-.71-.834-.48-1.5-1.21-1.997-2.193-.492-.989-.737-2.238-.737-3.747 0-1.545.251-2.835.754-3.87.504-1.036 1.172-1.812 2.007-2.326a5.184 5.184 0 012.761-.773c.763 0 1.403.13 1.917.39.515.255.93.575 1.243.96.32.378.566.751.737 1.118h.142v-2.29h3.756v13.77c0 1.16-.284 2.13-.853 2.911-.568.781-1.355 1.367-2.361 1.758-1 .397-2.152.595-3.454.595zm.08-8.434c.61 0 1.125-.151 1.545-.453.426-.308.752-.746.977-1.314.23-.574.346-1.26.346-2.06 0-.799-.113-1.491-.338-2.077-.224-.592-.55-1.05-.976-1.376-.426-.326-.944-.488-1.554-.488-.621 0-1.145.168-1.571.506-.426.331-.749.793-.968 1.385-.219.591-.328 1.275-.328 2.05 0 .788.109 1.468.328 2.042.225.569.548 1.01.968 1.323.426.308.95.462 1.571.462zM134.778 77l-3.711-13.636h3.827l2.113 9.162h.124l2.202-9.162h3.755l2.237 9.108h.116l2.077-9.108h3.817L147.633 77h-4.003l-2.344-8.576h-.169L138.773 77h-3.995zm18.575 0V63.364h3.782V77h-3.782zm1.9-15.394a2.054 2.054 0 01-1.447-.56c-.397-.378-.595-.831-.595-1.358 0-.52.198-.968.595-1.34a2.037 2.037 0 011.447-.569c.562 0 1.042.19 1.438.569.403.373.604.82.604 1.34 0 .527-.201.98-.604 1.358-.396.373-.876.56-1.438.56zm12.165 1.758v2.84h-8.212v-2.84h8.212zm-6.348-3.267h3.782V72.81c0 .349.053.621.16.816.106.19.254.323.444.4.195.077.42.115.674.115.178 0 .356-.015.533-.044.178-.036.314-.062.408-.08l.595 2.814c-.189.06-.455.128-.799.204a6.39 6.39 0 01-1.251.151c-.912.036-1.711-.085-2.398-.364a3.349 3.349 0 01-1.589-1.296c-.378-.586-.565-1.325-.559-2.22v-13.21zm12.886 9.02V77h-3.782V58.818h3.676v6.951h.159c.308-.804.805-1.435 1.492-1.89.687-.462 1.548-.693 2.583-.693.947 0 1.773.207 2.477.621.711.409 1.261.998 1.652 1.767.396.764.591 1.678.586 2.743V77h-3.782v-8.008c.006-.84-.208-1.494-.64-1.962-.426-.467-1.024-.701-1.793-.701-.515 0-.971.11-1.367.328a2.32 2.32 0 00-.923.96c-.219.413-.332.913-.338 1.5zM33.063 106V87.818h7.173c1.379 0 2.554.264 3.525.79.97.521 1.71 1.246 2.219 2.175.515.924.772 1.989.772 3.196 0 1.208-.26 2.273-.78 3.196-.522.924-1.276 1.643-2.265 2.158-.982.515-2.172.772-3.569.772h-4.572v-3.08h3.95c.74 0 1.35-.128 1.83-.382a2.53 2.53 0 001.083-1.075c.242-.461.364-.99.364-1.589 0-.603-.121-1.13-.364-1.58a2.43 2.43 0 00-1.083-1.056c-.486-.255-1.101-.382-1.847-.382h-2.592V106h-3.844zm16.115 0V92.364h3.667v2.379h.142c.248-.846.666-1.486 1.252-1.918a3.29 3.29 0 012.024-.657c.19 0 .393.012.612.036.22.024.412.056.577.098v3.355a4.933 4.933 0 00-.736-.142 6.609 6.609 0 00-.862-.062c-.556 0-1.053.121-1.491.364a2.681 2.681 0 00-1.03.994c-.249.427-.373.918-.373 1.474V106h-3.782zm10.23 0V92.364h3.782V106h-3.782zm1.9-15.394a2.055 2.055 0 01-1.448-.56c-.396-.378-.594-.831-.594-1.358 0-.52.198-.968.594-1.34a2.037 2.037 0 011.447-.569c.563 0 1.042.19 1.439.569.402.373.603.82.603 1.34 0 .527-.2.98-.603 1.358-.397.373-.876.56-1.439.56zM66.218 106V92.364h3.605v2.405h.16c.284-.799.757-1.429 1.42-1.89.663-.462 1.456-.693 2.38-.693.934 0 1.73.234 2.387.701a3.303 3.303 0 011.314 1.882h.142c.278-.78.782-1.405 1.51-1.873.733-.473 1.6-.71 2.6-.71 1.273 0 2.306.405 3.099 1.216.799.805 1.198 1.948 1.198 3.427V106h-3.773v-8.425c0-.758-.2-1.326-.603-1.705-.403-.378-.906-.568-1.51-.568-.686 0-1.222.22-1.606.657-.385.432-.577 1.003-.577 1.714V106h-3.667v-8.505c0-.669-.192-1.201-.577-1.598-.379-.397-.879-.595-1.5-.595-.42 0-.8.107-1.137.32-.331.207-.595.5-.79.879-.195.373-.293.81-.293 1.314V106H66.22zm29.017.266c-1.402 0-2.61-.284-3.622-.852a5.838 5.838 0 01-2.326-2.432c-.544-1.054-.816-2.3-.816-3.738 0-1.403.272-2.634.816-3.693.545-1.06 1.311-1.885 2.3-2.477.994-.592 2.16-.888 3.498-.888.9 0 1.737.145 2.512.435a5.573 5.573 0 012.042 1.287c.586.575 1.041 1.296 1.367 2.167.326.864.488 1.876.488 3.036v1.039H89.981v-2.344h7.954c0-.545-.118-1.027-.355-1.447a2.544 2.544 0 00-.985-.986c-.415-.242-.897-.364-1.447-.364-.575 0-1.084.133-1.527.4-.438.26-.782.612-1.03 1.056a2.983 2.983 0 00-.382 1.465v2.228c0 .675.124 1.258.373 1.749.254.492.613.87 1.074 1.137.462.266 1.01.399 1.643.399.42 0 .804-.059 1.154-.177a2.4 2.4 0 00.896-.533 2.32 2.32 0 00.569-.87l3.497.231a4.763 4.763 0 01-1.092 2.201c-.544.622-1.248 1.107-2.112 1.456-.859.344-1.85.515-2.975.515zm12.403-18.448l3.666 6.197h.142l3.685-6.197h4.341l-5.549 9.091 5.673 9.091h-4.421l-3.729-6.206h-.142L107.577 106h-4.404l5.691-9.09-5.584-9.092h4.359zM121.905 106V87.818h7.28c1.338 0 2.454.198 3.347.595.894.397 1.566.947 2.015 1.651.45.699.675 1.504.675 2.415 0 .71-.142 1.335-.426 1.873a3.68 3.68 0 01-1.172 1.314 4.796 4.796 0 01-1.687.72v.177c.693.03 1.341.225 1.945.586a4.154 4.154 0 011.482 1.518c.379.645.568 1.414.568 2.308 0 .965-.239 1.826-.719 2.584-.473.751-1.174 1.346-2.104 1.784-.929.438-2.074.657-3.435.657h-7.769zm3.845-3.143h3.133c1.072 0 1.853-.204 2.344-.612.491-.415.737-.965.737-1.652 0-.503-.121-.947-.364-1.331a2.474 2.474 0 00-1.039-.906c-.444-.219-.973-.328-1.589-.328h-3.222v4.829zm0-7.43h2.849c.527 0 .995-.092 1.403-.276.414-.19.74-.456.977-.799.242-.343.364-.754.364-1.234 0-.657-.234-1.186-.702-1.589-.461-.402-1.118-.604-1.971-.604h-2.92v4.502zm11.991-4.44v-3.169h14.933v3.17h-5.567V106h-3.799V90.988h-5.567z" fill="#fff"/></svg>