<svg width="147" height="42" viewBox="0 0 147 42" fill="none" xmlns="http://www.w3.org/2000/svg"><rect x=".509" width="146" height="42" rx="5.532" fill="#fff"/><path d="M29.98 18.063c-.053-.497-.276-.883-.67-1.16-.39-.276-.898-.414-1.523-.414-.44 0-.816.066-1.13.198-.315.133-.555.313-.722.54a1.313 1.313 0 00-.256.779c0 .242.055.452.165.63.114.178.267.33.46.455.193.121.407.223.642.307.235.083.472.153.71.21l1.091.273c.44.102.862.24 1.268.415.409.174.774.393 1.096.659.326.265.583.585.773.96.19.375.284.814.284 1.318 0 .682-.174 1.282-.523 1.801-.348.515-.852.919-1.511 1.21-.655.288-1.45.432-2.38.432-.906 0-1.692-.14-2.359-.42-.663-.28-1.182-.69-1.557-1.228-.37-.537-.572-1.193-.602-1.965h2.074c.03.405.155.742.375 1.01.22.27.506.47.858.603.356.133.754.199 1.193.199.458 0 .86-.068 1.205-.204.348-.14.62-.334.818-.58a1.4 1.4 0 00.3-.875c-.003-.303-.092-.553-.266-.75-.174-.2-.419-.367-.733-.5a7.051 7.051 0 00-1.091-.364l-1.324-.34c-.958-.247-1.716-.62-2.273-1.12-.553-.504-.83-1.172-.83-2.006 0-.685.186-1.286.558-1.8.375-.516.884-.915 1.528-1.2.644-.287 1.373-.431 2.188-.431.825 0 1.549.143 2.17.431.625.285 1.116.68 1.472 1.188.356.504.54 1.083.55 1.738H29.98zm8.334-.29v1.59h-5.017v-1.59h5.017zm-3.778-2.091h2.057v8.193c0 .276.041.489.125.636.087.144.2.243.34.296.14.053.296.08.466.08.13 0 .247-.01.353-.029.11-.019.193-.036.25-.051l.346 1.608c-.11.038-.267.08-.471.125-.201.045-.447.072-.739.08a3.354 3.354 0 01-1.392-.234 2.165 2.165 0 01-.983-.806c-.239-.364-.356-.819-.352-1.364v-8.534zm8.01 10.994a3.64 3.64 0 01-1.495-.295c-.439-.201-.788-.497-1.045-.887-.254-.39-.38-.87-.38-1.443 0-.492.09-.9.272-1.221.182-.322.43-.58.744-.773a3.755 3.755 0 011.063-.438 8.642 8.642 0 011.233-.221c.511-.053.926-.1 1.244-.142.318-.046.55-.114.693-.205.148-.095.222-.24.222-.437v-.035c0-.428-.127-.759-.38-.994-.255-.235-.62-.352-1.097-.352-.504 0-.904.11-1.2.33-.29.22-.488.479-.59.778l-1.92-.273c.15-.53.4-.973.75-1.33.348-.36.774-.628 1.278-.806a4.89 4.89 0 011.67-.273c.42 0 .84.05 1.256.148.417.098.797.261 1.142.489.345.223.621.528.83.914.212.387.318.87.318 1.45v5.84h-1.978v-1.199h-.068a2.51 2.51 0 01-.528.682 2.542 2.542 0 01-.847.506c-.337.125-.733.187-1.187.187zm.534-1.511c.413 0 .77-.082 1.074-.244.303-.167.536-.387.698-.66.167-.272.25-.57.25-.892v-1.028a.967.967 0 01-.329.148 4.655 4.655 0 01-.511.119c-.19.034-.377.064-.563.09l-.483.069c-.307.042-.581.11-.824.205a1.37 1.37 0 00-.574.397c-.14.167-.21.383-.21.648 0 .379.139.665.415.858.276.193.629.29 1.057.29zm6.142 1.335v-8.727h1.994v1.454h.091c.16-.503.432-.892.818-1.165.39-.276.836-.414 1.336-.414.113 0 .24.005.38.017.144.007.263.02.358.04v1.892a2.167 2.167 0 00-.415-.08 3.82 3.82 0 00-.54-.04 2.08 2.08 0 00-1.01.245c-.296.159-.53.38-.7.664-.17.285-.255.612-.255.983V26.5h-2.057zm11.17-8.727v1.59h-5.017v-1.59h5.017zm-3.778-2.091h2.057v8.193c0 .276.041.489.125.636.087.144.2.243.34.296.14.053.296.08.466.08.13 0 .247-.01.353-.029.11-.019.193-.036.25-.051l.346 1.608a4.59 4.59 0 01-.471.125c-.2.045-.447.072-.739.08a3.354 3.354 0 01-1.392-.234 2.166 2.166 0 01-.983-.806c-.239-.364-.356-.819-.352-1.364v-8.534zm9.047.949v-1.767h9.284v1.767h-3.597V26.5h-2.09v-9.87H65.66zM75.737 26.5v-8.727h1.995v1.454h.09c.16-.503.432-.892.819-1.165.39-.276.835-.414 1.335-.414.114 0 .24.005.38.017.145.007.264.02.359.04v1.892a2.17 2.17 0 00-.415-.08 3.818 3.818 0 00-.54-.04 2.08 2.08 0 00-1.011.245c-.296.159-.529.38-.699.664-.17.285-.256.612-.256.983V26.5h-2.056zm8.7.176a3.64 3.64 0 01-1.495-.295c-.44-.201-.788-.497-1.045-.887-.254-.39-.381-.87-.381-1.443 0-.492.09-.9.273-1.221.181-.322.43-.58.744-.773a3.755 3.755 0 011.062-.438 8.644 8.644 0 011.233-.221c.512-.053.926-.1 1.245-.142.318-.046.549-.114.693-.205.148-.095.221-.24.221-.437v-.035c0-.428-.126-.759-.38-.994s-.62-.352-1.097-.352c-.504 0-.903.11-1.199.33-.291.22-.488.479-.59.778l-1.921-.273c.151-.53.401-.973.75-1.33.349-.36.775-.628 1.278-.806a4.89 4.89 0 011.67-.273c.421 0 .84.05 1.256.148.417.098.798.261 1.143.489.344.223.62.528.83.914.211.387.317.87.317 1.45v5.84h-1.977v-1.199h-.068a2.51 2.51 0 01-.529.682 2.54 2.54 0 01-.846.506c-.337.125-.733.187-1.188.187zm.533-1.511c.413 0 .771-.082 1.074-.244.303-.167.536-.387.7-.66.166-.272.25-.57.25-.892v-1.028a.967.967 0 01-.33.148 4.658 4.658 0 01-.512.119c-.19.034-.377.064-.562.09l-.483.069c-.307.042-.582.11-.824.205a1.368 1.368 0 00-.574.397c-.14.167-.21.383-.21.648 0 .379.138.665.415.858.276.193.628.29 1.056.29zm9.381 1.488c-.686 0-1.3-.176-1.84-.528-.542-.352-.97-.864-1.285-1.534-.314-.67-.472-1.485-.472-2.443 0-.97.16-1.788.478-2.455.322-.67.755-1.176 1.3-1.517a3.344 3.344 0 011.825-.517c.511 0 .932.087 1.261.262.33.17.591.376.784.619.193.238.343.464.45.676h.084v-4.352H99V26.5h-2.023v-1.375h-.125c-.106.212-.26.438-.46.676-.2.235-.466.436-.796.602-.33.167-.744.25-1.244.25zm.574-1.687c.436 0 .807-.117 1.114-.352.306-.239.54-.57.698-.995.16-.424.24-.918.24-1.483 0-.564-.08-1.055-.24-1.471-.155-.417-.386-.74-.693-.972-.303-.23-.676-.346-1.119-.346-.458 0-.84.119-1.148.357-.307.24-.538.569-.693.99-.155.42-.233.9-.233 1.442 0 .546.078 1.033.233 1.46.16.425.392.76.699 1.006.31.243.691.364 1.142.364zm6.266 1.534v-8.727h2.056V26.5h-2.056zm1.034-9.966a1.2 1.2 0 01-.841-.324 1.043 1.043 0 01-.352-.79c0-.31.117-.573.352-.79.235-.219.515-.329.841-.329.329 0 .61.11.841.33.234.216.352.479.352.79 0 .306-.118.57-.352.79a1.188 1.188 0 01-.841.323zm5.194 4.852V26.5h-2.057v-8.727h1.966v1.483h.103c.2-.489.52-.877.96-1.165.443-.288.99-.432 1.642-.432.602 0 1.127.129 1.574.387.451.257.799.63 1.045 1.119.25.488.373 1.081.37 1.778V26.5h-2.057v-5.239c0-.583-.152-1.04-.455-1.369-.299-.33-.714-.494-1.244-.494-.36 0-.68.08-.96.238-.277.156-.495.381-.654.677-.155.295-.233.653-.233 1.073zm11.489 8.569c-.739 0-1.373-.1-1.903-.302-.531-.197-.957-.462-1.279-.795a2.753 2.753 0 01-.67-1.108l1.852-.449c.083.17.204.34.364.506.159.17.373.31.642.42.272.114.615.17 1.028.17.583 0 1.066-.141 1.449-.425.382-.28.574-.743.574-1.387v-1.653h-.103a2.93 2.93 0 01-.465.653 2.383 2.383 0 01-.802.563c-.329.151-.744.227-1.244.227a3.59 3.59 0 01-1.824-.472c-.541-.318-.973-.791-1.295-1.42-.318-.633-.477-1.424-.477-2.375 0-.958.159-1.767.477-2.426.322-.663.755-1.165 1.301-1.506a3.342 3.342 0 011.824-.517c.511 0 .932.087 1.261.262.333.17.599.376.796.619.197.238.346.464.448.676h.114v-1.443h2.029v8.869c0 .746-.179 1.364-.535 1.852-.356.489-.842.855-1.46 1.097-.617.242-1.318.363-2.102.363zm.017-5.194c.436 0 .807-.106 1.114-.318.306-.212.539-.517.698-.915.16-.397.239-.875.239-1.431 0-.55-.079-1.03-.239-1.444-.155-.412-.386-.732-.693-.96-.303-.23-.676-.346-1.119-.346-.458 0-.841.119-1.148.357-.307.24-.538.567-.693.983a3.99 3.99 0 00-.233 1.41c0 .534.078 1.002.233 1.403.159.398.392.708.699.932.311.22.691.33 1.142.33z" fill="#3760FF"/></svg>