<svg width="222" height="63" viewBox="0 0 222 63" fill="none" xmlns="http://www.w3.org/2000/svg"><path d="M10.215 5.39c-.06-.601-.316-1.069-.768-1.402-.452-.333-1.066-.5-1.842-.5-.527 0-.972.075-1.335.224-.363.144-.641.346-.835.604a1.454 1.454 0 00-.283.88c-.01.274.047.512.171.716.13.204.306.38.53.53.223.144.482.27.775.38.293.104.607.194.94.268l1.372.329c.666.149 1.278.348 1.834.596.557.249 1.04.555 1.447.917.408.363.723.79.947 1.283.229.492.346 1.057.35 1.693-.004.935-.243 1.745-.715 2.431-.468.681-1.144 1.21-2.029 1.588-.88.373-1.941.56-3.184.56-1.233 0-2.307-.19-3.221-.567-.91-.378-1.621-.937-2.133-1.678-.507-.746-.773-1.668-.798-2.767h3.124c.035.513.182.94.44 1.283.264.338.614.594 1.052.768.442.17.942.254 1.499.254.547 0 1.021-.08 1.424-.239.408-.159.724-.38.947-.664.224-.283.336-.609.336-.977a1.27 1.27 0 00-.306-.865c-.199-.233-.492-.432-.88-.596a8.953 8.953 0 00-1.41-.448l-1.662-.417c-1.288-.313-2.305-.803-3.05-1.47-.746-.666-1.117-1.563-1.112-2.691-.005-.925.242-1.733.739-2.424.502-.691 1.19-1.23 2.065-1.618C5.52.983 6.514.789 7.627.789c1.134 0 2.123.194 2.968.582.85.387 1.512.927 1.984 1.618.472.691.716 1.491.73 2.401h-3.094zm10.636 11.104c-1.178 0-2.192-.238-3.042-.716a4.902 4.902 0 01-1.954-2.043c-.458-.885-.686-1.931-.686-3.14 0-1.178.228-2.212.686-3.102a5.071 5.071 0 011.931-2.08c.835-.498 1.815-.746 2.938-.746.756 0 1.46.122 2.11.365.657.239 1.229.6 1.716 1.082.492.482.875 1.088 1.148 1.82.274.725.41 1.575.41 2.55v.872h-9.672V9.387h6.682c0-.457-.1-.862-.298-1.215a2.137 2.137 0 00-.828-.828c-.348-.204-.753-.306-1.215-.306-.483 0-.91.112-1.283.336a2.353 2.353 0 00-.865.887 2.507 2.507 0 00-.32 1.23v1.873c0 .566.104 1.056.312 1.469.214.412.515.73.903.954.388.224.847.336 1.38.336.352 0 .675-.05.969-.15.293-.099.544-.248.753-.447.209-.199.368-.442.477-.73l2.938.193a4.012 4.012 0 01-.917 1.85c-.457.522-1.049.93-1.775 1.223-.72.288-1.553.432-2.498.432zm12.506 0c-1.173 0-2.182-.248-3.027-.745a5.041 5.041 0 01-1.94-2.089c-.447-.89-.67-1.914-.67-3.072 0-1.173.226-2.202.678-3.087a5.041 5.041 0 011.947-2.081c.84-.502 1.839-.753 2.997-.753 1 0 1.875.181 2.625.544.751.363 1.345.873 1.783 1.529.437.656.678 1.427.723 2.312h-2.998c-.084-.572-.308-1.032-.671-1.38-.358-.353-.828-.53-1.41-.53a2.13 2.13 0 00-1.29.403c-.363.264-.646.65-.85 1.156-.204.507-.306 1.121-.306 1.842 0 .731.1 1.353.299 1.865.204.512.49.902.857 1.17a2.13 2.13 0 001.29.403c.364 0 .69-.075.977-.224.294-.149.535-.365.724-.648.194-.289.32-.634.38-1.037h2.998c-.05.875-.288 1.646-.716 2.312a4.324 4.324 0 01-1.752 1.55c-.746.374-1.629.56-2.648.56zm14.495-5.1V4.815h3.177V16.27h-3.05v-2.08h-.119a3.382 3.382 0 01-1.29 1.618c-.597.408-1.325.612-2.185.612-.766 0-1.44-.174-2.021-.522a3.588 3.588 0 01-1.365-1.484c-.323-.642-.487-1.41-.492-2.305V4.816h3.177v6.727c.005.676.186 1.21.544 1.603.358.393.838.589 1.44.589.382 0 .74-.087 1.073-.261a2.05 2.05 0 00.806-.79c.209-.348.31-.778.306-1.29zm5.719 4.876V4.816h3.08v1.999h.119c.208-.711.559-1.248 1.051-1.611a2.764 2.764 0 011.7-.552 4.803 4.803 0 011 .112v2.819a4.153 4.153 0 00-.62-.12 5.559 5.559 0 00-.723-.052c-.467 0-.884.102-1.252.306a2.252 2.252 0 00-.866.835c-.208.358-.313.77-.313 1.238v6.48h-3.176zm13.28.224c-1.179 0-2.193-.238-3.043-.716a4.902 4.902 0 01-1.954-2.043c-.458-.885-.686-1.931-.686-3.14 0-1.178.228-2.212.686-3.102a5.072 5.072 0 011.931-2.08c.836-.498 1.815-.746 2.939-.746.755 0 1.459.122 2.11.365.656.239 1.228.6 1.715 1.082.492.482.875 1.088 1.148 1.82.274.725.41 1.575.41 2.55v.872h-9.672V9.387h6.682c0-.457-.1-.862-.298-1.215a2.137 2.137 0 00-.828-.828c-.348-.204-.753-.306-1.215-.306-.483 0-.91.112-1.283.336a2.353 2.353 0 00-.865.887 2.505 2.505 0 00-.32 1.23v1.873c0 .566.104 1.056.313 1.469.213.412.514.73.902.954.388.224.848.336 1.38.336.352 0 .676-.05.969-.15.293-.099.544-.248.753-.447.209-.199.368-.442.477-.73l2.939.193a4.013 4.013 0 01-.918 1.85c-.457.522-1.049.93-1.775 1.223-.72.288-1.553.432-2.498.432zm14.151 4.072c-.402 0-.78-.032-1.133-.097a4.12 4.12 0 01-.865-.231l.716-2.372c.373.115.708.177 1.007.187.303.01.564-.06.783-.209.223-.15.405-.403.544-.76l.186-.485-4.109-11.783h3.341l2.372 8.412h.12l2.393-8.412h3.363l-4.452 12.692a5.33 5.33 0 01-.872 1.611 3.575 3.575 0 01-1.38 1.067c-.557.253-1.228.38-2.014.38zm15.15-4.072c-1.158 0-2.16-.246-3.005-.738a5.051 5.051 0 01-1.947-2.073c-.457-.89-.686-1.922-.686-3.095 0-1.183.23-2.217.687-3.102a4.991 4.991 0 011.946-2.073c.845-.498 1.847-.746 3.005-.746 1.159 0 2.158.248 2.998.746a4.982 4.982 0 011.954 2.073c.457.885.686 1.919.686 3.102 0 1.173-.229 2.205-.686 3.095a5.041 5.041 0 01-1.954 2.073c-.84.492-1.84.738-2.998.738zm.015-2.46c.527 0 .967-.15 1.32-.448.353-.303.619-.716.798-1.238.184-.522.276-1.116.276-1.782 0-.667-.092-1.26-.276-1.783-.179-.522-.445-.934-.798-1.238-.353-.303-.793-.455-1.32-.455-.532 0-.98.152-1.342.455-.358.304-.63.716-.813 1.238-.18.522-.269 1.116-.269 1.783 0 .666.09 1.26.269 1.782.184.522.455.935.813 1.238.363.298.81.447 1.342.447zm15.034-2.64V4.815h3.177V16.27h-3.05v-2.08h-.119a3.384 3.384 0 01-1.291 1.618c-.596.408-1.324.612-2.185.612-.765 0-1.439-.174-2.02-.522a3.586 3.586 0 01-1.365-1.484c-.323-.642-.487-1.41-.492-2.305V4.816h3.176v6.727c.005.676.187 1.21.545 1.603.358.393.838.589 1.439.589.383 0 .741-.087 1.074-.261.333-.179.602-.443.805-.79.209-.348.311-.778.306-1.29zm5.718 4.876V4.816h3.08v1.999h.119c.209-.711.56-1.248 1.052-1.611a2.763 2.763 0 011.7-.552c.159 0 .331.01.515.03.184.02.345.047.484.082v2.819a4.135 4.135 0 00-.619-.12 5.545 5.545 0 00-.723-.052c-.467 0-.885.102-1.253.306a2.252 2.252 0 00-.865.835 2.41 2.41 0 00-.313 1.238v6.48h-3.177zm19.613-11.454v2.386h-7.07V4.816h7.07zm-5.451 11.454V3.988c0-.83.161-1.519.484-2.065a3.12 3.12 0 011.343-1.231c.567-.273 1.21-.41 1.931-.41.487 0 .932.037 1.335.112.408.074.711.141.91.201l-.567 2.386a3.946 3.946 0 00-.462-.111 2.886 2.886 0 00-.552-.053c-.467 0-.793.11-.977.329-.184.213-.276.514-.276.902V16.27h-3.169zm7.392 0V4.816h3.177V16.27h-3.177zm1.596-12.93c-.473 0-.878-.157-1.216-.47a1.523 1.523 0 01-.499-1.141c0-.438.166-.813.499-1.126a1.711 1.711 0 011.216-.478c.472 0 .875.16 1.208.478.338.313.507.688.507 1.126 0 .442-.169.822-.507 1.14a1.7 1.7 0 01-1.208.47zm7.302 6.308v6.622h-3.177V4.816h3.028v2.02h.134a3.197 3.197 0 011.276-1.58c.596-.393 1.32-.59 2.17-.59.795 0 1.489.175 2.08.523a3.546 3.546 0 011.38 1.491c.328.642.492 1.407.492 2.297v7.293h-3.177V9.544c.005-.701-.174-1.248-.537-1.64-.363-.398-.862-.597-1.499-.597-.427 0-.805.092-1.133.276a1.925 1.925 0 00-.761.805c-.179.348-.271.768-.276 1.26zm13.153 6.839c-.731 0-1.382-.127-1.954-.38a3.148 3.148 0 01-1.357-1.141c-.328-.508-.492-1.139-.492-1.895 0-.636.117-1.17.351-1.603.233-.433.551-.78.954-1.044.403-.264.86-.462 1.372-.597a10.455 10.455 0 011.626-.283 41.3 41.3 0 001.611-.194c.407-.065.703-.159.887-.283.184-.125.276-.309.276-.552V8.47c0-.472-.149-.838-.447-1.096-.294-.259-.711-.388-1.253-.388-.572 0-1.027.127-1.365.38a1.748 1.748 0 00-.671.94l-2.938-.239a3.986 3.986 0 01.88-1.804c.437-.512 1.001-.905 1.693-1.179.696-.278 1.501-.417 2.416-.417.636 0 1.245.074 1.827.224.586.149 1.106.38 1.558.693.458.313.818.716 1.082 1.208.263.487.395 1.072.395 1.753v7.725h-3.013v-1.588h-.089c-.184.358-.43.674-.739.947-.308.269-.678.48-1.111.634-.432.15-.932.224-1.499.224zm.91-2.193c.467 0 .88-.092 1.238-.276.358-.189.639-.442.843-.76a1.96 1.96 0 00.305-1.082v-1.215a1.69 1.69 0 01-.41.179c-.169.05-.36.097-.574.141-.214.04-.427.078-.641.112l-.582.082a3.937 3.937 0 00-.977.261c-.278.12-.495.281-.649.485-.154.199-.231.448-.231.746 0 .432.157.763.47.992.318.223.721.335 1.208.335zm11.182-4.646v6.622h-3.176V4.816h3.027v2.02h.135a3.19 3.19 0 011.275-1.58c.596-.393 1.32-.59 2.17-.59.795 0 1.489.175 2.08.523a3.546 3.546 0 011.38 1.491c.328.642.492 1.407.492 2.297v7.293h-3.177V9.544c.005-.701-.174-1.248-.537-1.64-.362-.398-.862-.597-1.498-.597-.428 0-.806.092-1.134.276a1.925 1.925 0 00-.761.805c-.179.348-.271.768-.276 1.26zm15.063 6.846c-1.174 0-2.183-.248-3.028-.745a5.04 5.04 0 01-1.939-2.089c-.448-.89-.671-1.914-.671-3.072 0-1.173.226-2.202.678-3.087a5.048 5.048 0 011.947-2.081c.84-.502 1.839-.753 2.998-.753.999 0 1.874.181 2.625.544.75.363 1.344.873 1.782 1.529.437.656.679 1.427.723 2.312h-2.998c-.084-.572-.308-1.032-.671-1.38-.358-.353-.828-.53-1.409-.53a2.13 2.13 0 00-1.29.403c-.363.264-.647.65-.85 1.156-.204.507-.306 1.121-.306 1.842 0 .731.099 1.353.298 1.865.204.512.49.902.858 1.17a2.13 2.13 0 001.29.403c.363 0 .688-.075.977-.224a1.89 1.89 0 00.723-.648c.194-.289.321-.634.38-1.037h2.998c-.049.875-.288 1.646-.716 2.312-.422.661-1.006 1.178-1.752 1.55-.746.374-1.628.56-2.647.56zm7.149-.224V4.816h3.177V16.27h-3.177zm1.596-12.93c-.472 0-.877-.157-1.215-.47a1.524 1.524 0 01-.5-1.141c0-.438.167-.813.5-1.126a1.71 1.71 0 011.215-.478c.472 0 .875.16 1.208.478.338.313.507.688.507 1.126 0 .442-.169.822-.507 1.14a1.7 1.7 0 01-1.208.47zm7.392 13.147c-.731 0-1.382-.127-1.954-.38a3.148 3.148 0 01-1.357-1.141c-.328-.508-.492-1.139-.492-1.895 0-.636.117-1.17.351-1.603.233-.433.551-.78.954-1.044.403-.264.86-.462 1.372-.597a10.455 10.455 0 011.626-.283 41.3 41.3 0 001.611-.194c.407-.065.703-.159.887-.283.184-.125.276-.309.276-.552V8.47c0-.472-.149-.838-.447-1.096-.294-.259-.711-.388-1.253-.388-.572 0-1.027.127-1.365.38a1.748 1.748 0 00-.671.94l-2.938-.239a3.986 3.986 0 01.88-1.804c.437-.512 1.001-.905 1.693-1.179.696-.278 1.501-.417 2.416-.417.636 0 1.245.074 1.827.224.586.149 1.106.38 1.558.693.458.313.818.716 1.082 1.208.263.487.395 1.072.395 1.753v7.725h-3.013v-1.588h-.089c-.184.358-.43.674-.739.947-.308.269-.678.48-1.111.634-.432.15-.932.224-1.499.224zm.91-2.193c.467 0 .88-.092 1.238-.276.358-.189.639-.442.843-.76a1.96 1.96 0 00.305-1.082v-1.215a1.69 1.69 0 01-.41.179c-.169.05-.36.097-.574.141-.214.04-.427.078-.641.112l-.582.082a3.937 3.937 0 00-.977.261c-.278.12-.495.281-.649.485-.154.199-.231.448-.231.746 0 .432.157.763.47.992.318.223.721.335 1.208.335zM215.908.998V16.27h-3.176V.998h3.176zM8.03 27.816v2.386H.96v-2.386h7.07zM2.58 39.27V26.988c0-.83.161-1.519.484-2.066a3.115 3.115 0 011.343-1.23c.567-.273 1.21-.41 1.931-.41.487 0 .932.037 1.335.112.408.074.711.141.91.201l-.567 2.386a3.987 3.987 0 00-.462-.111A2.885 2.885 0 007 25.817c-.467 0-.793.11-.977.328-.184.214-.276.515-.276.903V39.27h-3.17zm14.737-4.877v-6.577h3.177V39.27h-3.05v-2.08h-.12a3.382 3.382 0 01-1.29 1.618c-.596.408-1.324.612-2.184.612-.766 0-1.44-.174-2.021-.522a3.588 3.588 0 01-1.365-1.484c-.323-.642-.487-1.41-.492-2.305v-7.293h3.177v6.726c.005.677.186 1.211.544 1.604.358.393.838.589 1.44.589.382 0 .74-.087 1.073-.261a2.05 2.05 0 00.806-.79c.209-.348.31-.778.305-1.29zm11.811-6.577v2.386h-6.898v-2.386h6.898zm-5.332-2.744h3.177V35.75c0 .293.045.522.134.686a.74.74 0 00.373.335c.164.065.353.097.567.097.149 0 .298-.012.447-.037l.343-.067.5 2.364c-.16.05-.383.107-.671.171-.289.07-.64.112-1.052.127-.765.03-1.437-.072-2.013-.306a2.81 2.81 0 01-1.335-1.088c-.318-.493-.475-1.114-.47-1.865V25.072zm14.747 9.321v-6.577h3.177V39.27h-3.05v-2.08h-.12a3.381 3.381 0 01-1.29 1.618c-.596.408-1.325.612-2.185.612-.765 0-1.439-.174-2.02-.522a3.588 3.588 0 01-1.365-1.484c-.323-.642-.488-1.41-.492-2.305v-7.293h3.176v6.726c.005.677.187 1.211.545 1.604.358.393.837.589 1.439.589.383 0 .74-.087 1.074-.261a2.05 2.05 0 00.805-.79c.209-.348.311-.778.306-1.29zm5.718 4.877V27.816h3.08v1.998h.12c.208-.71.559-1.247 1.05-1.61a2.764 2.764 0 011.7-.552 4.803 4.803 0 011 .112v2.819a4.139 4.139 0 00-.619-.12 5.562 5.562 0 00-.723-.052c-.467 0-.885.102-1.253.306a2.25 2.25 0 00-.865.835c-.209.358-.313.77-.313 1.238v6.48H44.26zm13.28.224c-1.179 0-2.193-.238-3.043-.716a4.903 4.903 0 01-1.954-2.043c-.457-.885-.686-1.931-.686-3.14 0-1.178.229-2.212.686-3.102a5.071 5.071 0 011.932-2.08c.835-.498 1.814-.746 2.938-.746.756 0 1.46.122 2.11.365.657.239 1.228.6 1.715 1.081.493.483.876 1.09 1.149 1.82.273.726.41 1.576.41 2.55v.873h-9.672v-1.969h6.682c0-.457-.1-.862-.299-1.215a2.137 2.137 0 00-.827-.828c-.348-.204-.753-.306-1.216-.306-.482 0-.91.112-1.283.336a2.353 2.353 0 00-.865.887 2.506 2.506 0 00-.32 1.23v1.873c0 .566.104 1.056.313 1.469.214.412.514.73.902.954.388.224.848.336 1.38.336.353 0 .676-.05.97-.15.293-.099.544-.248.753-.447.208-.199.367-.442.477-.73l2.938.193a4.012 4.012 0 01-.917 1.85c-.458.522-1.05.93-1.775 1.223-.721.288-1.554.432-2.498.432zm12.25-.224V23.998h3.177v5.742h.097a4.2 4.2 0 01.604-.94 3.186 3.186 0 011.044-.805c.433-.219.97-.328 1.611-.328.835 0 1.606.219 2.312.656.706.433 1.27 1.086 1.693 1.961.422.87.633 1.962.633 3.274 0 1.278-.206 2.357-.618 3.237-.408.875-.965 1.538-1.671 1.99-.7.448-1.486.672-2.356.672-.617 0-1.142-.102-1.574-.306a3.254 3.254 0 01-1.052-.768 3.902 3.902 0 01-.626-.947h-.142v1.834H69.79zm3.11-5.727c0 .681.094 1.275.283 1.783.19.507.463.902.82 1.185.359.279.794.418 1.306.418.517 0 .954-.142 1.312-.425.358-.288.63-.686.813-1.193.189-.512.284-1.102.284-1.768 0-.661-.093-1.243-.276-1.745-.184-.502-.455-.895-.813-1.178-.358-.283-.798-.425-1.32-.425-.517 0-.955.137-1.313.41-.353.273-.624.661-.813 1.163-.189.502-.283 1.094-.283 1.775zm11.773 10.023c-.402 0-.78-.032-1.133-.097a4.12 4.12 0 01-.865-.231l.716-2.372c.373.115.708.177 1.006.187.304.01.565-.06.783-.209.224-.15.406-.403.545-.76l.186-.485-4.109-11.783h3.341l2.372 8.412h.119l2.394-8.412h3.363L88.94 40.508a5.33 5.33 0 01-.872 1.611 3.575 3.575 0 01-1.38 1.067c-.557.253-1.228.38-2.014.38zm21.297-15.75v2.386h-6.898v-2.386h6.898zm-5.332-2.744h3.177V35.75c0 .293.044.522.134.686.089.159.214.27.373.335.164.065.353.097.566.097.15 0 .299-.012.448-.037l.343-.067.5 2.364c-.159.05-.383.107-.672.171-.288.07-.638.112-1.051.127-.766.03-1.437-.072-2.014-.306a2.81 2.81 0 01-1.334-1.088c-.319-.493-.475-1.114-.47-1.865V25.072zm7.401 14.198V27.816h3.08v1.998h.119c.209-.71.56-1.247 1.052-1.61a2.763 2.763 0 011.7-.552c.159 0 .331.01.515.03.184.02.345.047.485.082v2.819a4.178 4.178 0 00-.619-.12 5.573 5.573 0 00-.724-.052c-.467 0-.885.102-1.253.306a2.252 2.252 0 00-.865.835 2.41 2.41 0 00-.313 1.238v6.48h-3.177zm11.531.217c-.731 0-1.382-.127-1.954-.38a3.148 3.148 0 01-1.357-1.142c-.328-.507-.492-1.138-.492-1.894 0-.636.117-1.17.35-1.603a2.84 2.84 0 01.955-1.044c.403-.264.86-.462 1.372-.597a10.463 10.463 0 011.626-.283c.666-.07 1.203-.134 1.611-.194.407-.065.703-.159.887-.283.184-.125.276-.309.276-.552v-.045c0-.472-.149-.838-.447-1.096-.294-.259-.711-.388-1.253-.388-.572 0-1.027.127-1.365.38a1.748 1.748 0 00-.671.94l-2.938-.239a3.986 3.986 0 01.88-1.804c.437-.512 1.001-.905 1.692-1.179.696-.278 1.502-.417 2.417-.417.636 0 1.245.074 1.827.223a4.78 4.78 0 011.558.694c.458.313.818.716 1.082 1.208.263.487.395 1.071.395 1.753v7.725h-3.013v-1.588h-.089c-.184.358-.43.674-.739.947-.308.269-.678.48-1.111.634-.432.15-.932.224-1.499.224zm.91-2.193c.467 0 .88-.092 1.238-.276.358-.188.639-.442.843-.76.203-.319.305-.679.305-1.082v-1.215a1.69 1.69 0 01-.41.179c-.169.05-.36.097-.574.142-.214.04-.428.077-.641.111l-.582.082a3.926 3.926 0 00-.977.261c-.278.12-.495.281-.649.485-.154.199-.231.448-.231.746 0 .432.157.763.47.992.318.223.721.335 1.208.335zm12.226 2.163c-.87 0-1.658-.224-2.364-.671-.701-.453-1.257-1.116-1.67-1.991-.408-.88-.612-1.96-.612-3.237 0-1.312.212-2.404.634-3.274.423-.875.985-1.528 1.686-1.96a4.318 4.318 0 012.319-.657c.641 0 1.176.11 1.603.328.433.214.781.482 1.044.805.269.319.473.632.612.94h.097v-5.742h3.169V39.27h-3.132v-1.834h-.134a4.104 4.104 0 01-.634.947 3.153 3.153 0 01-1.052.768c-.427.204-.949.306-1.566.306zm1.007-2.528c.512 0 .945-.14 1.298-.418.358-.283.631-.678.82-1.185.194-.508.291-1.102.291-1.783 0-.68-.095-1.273-.284-1.775-.188-.502-.462-.89-.82-1.163-.358-.273-.793-.41-1.305-.41-.522 0-.962.142-1.32.425-.358.283-.629.676-.813 1.178-.184.502-.276 1.084-.276 1.745 0 .666.092 1.256.276 1.768.189.507.46.904.813 1.193.358.283.798.425 1.32.425zm8.123 2.341V27.816h3.177V39.27h-3.177zm1.596-12.93c-.472 0-.878-.157-1.216-.47a1.523 1.523 0 01-.499-1.141c0-.438.166-.813.499-1.127a1.713 1.713 0 011.216-.477c.472 0 .875.16 1.208.477.338.314.507.69.507 1.127 0 .442-.169.822-.507 1.14a1.7 1.7 0 01-1.208.47zm7.303 6.308v6.622h-3.177V27.816h3.027v2.02h.135a3.19 3.19 0 011.275-1.58c.597-.393 1.32-.59 2.17-.59.795 0 1.489.175 2.081.523a3.55 3.55 0 011.379 1.491c.328.642.492 1.407.492 2.297v7.293h-3.176v-6.726c.005-.701-.174-1.248-.537-1.64-.363-.398-.863-.597-1.499-.597-.428 0-.806.092-1.134.276a1.916 1.916 0 00-.76.805c-.179.348-.271.768-.276 1.26zm15.047 11.157c-1.029 0-1.912-.142-2.648-.425-.73-.279-1.312-.66-1.745-1.142a3.509 3.509 0 01-.842-1.625l2.938-.395c.089.228.231.442.425.64.194.2.45.359.768.478.323.125.716.187 1.178.187.691 0 1.261-.17 1.708-.508.452-.333.679-.892.679-1.677v-2.096h-.135a3.02 3.02 0 01-.626.902 3.149 3.149 0 01-1.074.694c-.437.179-.959.268-1.566.268-.86 0-1.643-.198-2.349-.596-.701-.403-1.26-1.017-1.678-1.842-.412-.83-.619-1.88-.619-3.147 0-1.298.211-2.381.634-3.252.423-.87.984-1.52 1.685-1.953a4.356 4.356 0 012.32-.65c.641 0 1.178.11 1.61.329a3.09 3.09 0 011.045.805c.268.319.474.632.618.94h.12v-1.924h3.154v11.566c0 .975-.238 1.79-.716 2.446-.477.657-1.138 1.149-1.983 1.477-.841.333-1.807.5-2.901.5zm.067-7.085c.512 0 .944-.127 1.297-.38.358-.259.632-.627.821-1.104.194-.482.291-1.059.291-1.73s-.095-1.253-.284-1.745c-.189-.497-.462-.883-.82-1.156-.358-.273-.793-.41-1.305-.41-.522 0-.962.142-1.32.425-.358.278-.629.666-.813 1.163-.184.498-.276 1.072-.276 1.723 0 .661.092 1.233.276 1.715.189.477.46.848.813 1.111.358.259.798.388 1.32.388zm15.181 2.55l-3.117-11.454h3.214l1.775 7.696h.104l1.85-7.696h3.154l1.88 7.651h.097l1.745-7.651h3.206l-3.109 11.454h-3.364l-1.968-7.203h-.142l-1.969 7.203h-3.356zm15.603 0V27.816h3.177V39.27h-3.177zm1.596-12.93c-.472 0-.878-.157-1.216-.47a1.523 1.523 0 01-.499-1.141c0-.438.166-.813.499-1.127a1.713 1.713 0 011.216-.477c.472 0 .875.16 1.208.477.338.314.507.69.507 1.127 0 .442-.169.822-.507 1.14a1.7 1.7 0 01-1.208.47zm10.218 1.476v2.386h-6.898v-2.386h6.898zm-5.332-2.744h3.177V35.75c0 .293.045.522.134.686.09.159.214.27.373.335.164.065.353.097.567.097.149 0 .298-.012.447-.037l.344-.067.499 2.364c-.159.05-.383.107-.671.171a5.38 5.38 0 01-1.052.127c-.765.03-1.436-.072-2.013-.306a2.808 2.808 0 01-1.335-1.088c-.318-.493-.475-1.114-.47-1.865V25.072zm10.825 7.576v6.622h-3.177V23.998h3.087v5.839h.134a3.25 3.25 0 011.253-1.588c.577-.388 1.3-.582 2.17-.582.796 0 1.489.174 2.081.522a3.483 3.483 0 011.387 1.484c.333.641.497 1.41.492 2.304v7.293h-3.177v-6.726c.005-.706-.174-1.255-.537-1.648-.357-.393-.86-.59-1.506-.59-.432 0-.815.093-1.148.277a1.958 1.958 0 00-.776.805c-.184.348-.278.768-.283 1.26zM1.93 62.27V46.998h6.026c1.158 0 2.145.221 2.96.663a4.494 4.494 0 011.864 1.828c.433.775.65 1.67.65 2.684 0 1.014-.22 1.91-.657 2.685-.438.775-1.071 1.38-1.902 1.812-.825.432-1.824.649-2.998.649h-3.84V54.73H7.35c.622 0 1.134-.107 1.537-.32.407-.22.71-.52.91-.903.203-.388.305-.833.305-1.335 0-.507-.102-.95-.306-1.327a2.042 2.042 0 00-.91-.888c-.407-.213-.924-.32-1.55-.32H5.159V62.27H1.93zm13.537 0V50.816h3.08v1.998h.12c.208-.71.558-1.247 1.05-1.61a2.764 2.764 0 011.701-.552 4.8 4.8 0 011 .112v2.819a4.143 4.143 0 00-.62-.12 5.56 5.56 0 00-.723-.052c-.467 0-.885.102-1.253.306a2.252 2.252 0 00-.865.835c-.209.358-.313.77-.313 1.238v6.48h-3.177zm8.593 0V50.816h3.177V62.27H24.06zm1.596-12.93c-.473 0-.878-.157-1.216-.47a1.523 1.523 0 01-.5-1.141c0-.438.167-.813.5-1.127a1.711 1.711 0 011.216-.477c.472 0 .875.16 1.208.477.338.314.507.69.507 1.127 0 .442-.17.822-.507 1.14a1.7 1.7 0 01-1.208.47zm4.125 12.93V50.816h3.028v2.02h.134c.239-.67.637-1.2 1.194-1.587.556-.388 1.223-.582 1.998-.582.786 0 1.454.196 2.006.589.552.388.92.915 1.104 1.58h.12a3.047 3.047 0 011.267-1.573c.616-.397 1.345-.596 2.185-.596 1.069 0 1.936.34 2.603 1.021.67.677 1.006 1.636 1.006 2.879v7.703h-3.17v-7.077c0-.636-.168-1.113-.506-1.431-.338-.319-.76-.478-1.268-.478-.577 0-1.027.184-1.35.552-.323.363-.484.843-.484 1.44v6.994h-3.08v-7.144c0-.561-.162-1.009-.485-1.342-.318-.333-.738-.5-1.26-.5-.353 0-.672.09-.955.269-.278.174-.5.42-.664.738-.164.313-.246.681-.246 1.104v6.875h-3.177zm24.375.224c-1.178 0-2.193-.238-3.043-.716a4.903 4.903 0 01-1.954-2.043c-.457-.885-.686-1.931-.686-3.14 0-1.178.23-2.212.686-3.102a5.071 5.071 0 011.932-2.08c.835-.498 1.815-.746 2.938-.746.756 0 1.46.122 2.11.365.657.239 1.228.6 1.716 1.082.492.482.875 1.088 1.148 1.82.274.725.41 1.575.41 2.55v.872h-9.672v-1.969h6.682c0-.457-.1-.862-.298-1.215a2.136 2.136 0 00-.828-.828c-.348-.204-.753-.306-1.216-.306-.482 0-.91.112-1.282.336a2.353 2.353 0 00-.865.887 2.506 2.506 0 00-.321 1.23v1.873c0 .566.104 1.056.313 1.469.214.412.515.73.902.954.388.224.848.336 1.38.336.353 0 .676-.05.97-.15.293-.099.544-.248.753-.447.209-.199.368-.442.477-.73l2.938.193a4.012 4.012 0 01-.917 1.85c-.457.522-1.049.93-1.775 1.223-.72.288-1.554.432-2.498.432zm10.418-15.496l3.08 5.205h.12l3.094-5.205h3.647l-4.661 7.636 4.765 7.636h-3.714l-3.132-5.212h-.12l-3.131 5.212h-3.7l4.781-7.636-4.69-7.636h3.66zM76.558 62.27V46.998h6.115c1.123 0 2.06.166 2.811.5.751.333 1.315.795 1.693 1.387.378.586.567 1.262.567 2.028 0 .597-.12 1.121-.358 1.573a3.088 3.088 0 01-.984 1.104 4.036 4.036 0 01-1.417.604v.15a3.42 3.42 0 011.633.492c.512.303.927.728 1.245 1.275.319.542.478 1.188.478 1.939 0 .81-.202 1.533-.604 2.17-.398.631-.987 1.13-1.768 1.499-.78.368-1.742.551-2.886.551h-6.525zm3.229-2.64h2.632c.9 0 1.556-.172 1.97-.515.412-.348.618-.81.618-1.387 0-.423-.102-.795-.306-1.119a2.075 2.075 0 00-.872-.76c-.373-.184-.818-.276-1.335-.276h-2.707v4.057zm0-6.242h2.394c.442 0 .835-.077 1.178-.231a1.96 1.96 0 00.82-.672c.204-.288.306-.633.306-1.036 0-.552-.196-.997-.59-1.335-.387-.338-.939-.507-1.655-.507h-2.453v3.78zM89.86 49.66v-2.662h12.543v2.662h-4.675v12.61h-3.192V49.66H89.86z" fill="#fff"/></svg>