<svg width="150" height="25" viewBox="0 0 150 25" fill="none" xmlns="http://www.w3.org/2000/svg"><path d="M5.535 3.3a.989.989 0 00-.402-.734c-.237-.174-.559-.261-.965-.261-.276 0-.51.039-.7.117a.984.984 0 00-.437.316.762.762 0 00-.148.461.658.658 0 00.09.375c.067.107.16.2.277.277.117.076.253.142.406.2.154.054.318.101.492.14l.72.172c.348.078.668.182.96.313.292.13.544.29.758.48.213.19.379.414.496.672.12.258.181.553.184.887-.003.49-.128.914-.375 1.273-.245.357-.6.634-1.063.832-.46.195-1.017.293-1.668.293-.646 0-1.208-.099-1.687-.297a2.472 2.472 0 01-1.118-.879c-.265-.39-.404-.873-.417-1.449h1.636c.018.268.095.492.23.672.139.177.322.311.551.402.232.089.494.133.786.133.286 0 .535-.041.746-.125.213-.083.379-.199.496-.347a.803.803 0 00.176-.512c0-.18-.054-.33-.16-.453a1.214 1.214 0 00-.462-.313 4.687 4.687 0 00-.738-.234l-.87-.219c-.675-.164-1.208-.42-1.599-.77-.39-.348-.584-.818-.582-1.41a2.096 2.096 0 01.387-1.27 2.609 2.609 0 011.082-.847c.459-.203.98-.304 1.563-.304.593 0 1.112.101 1.554.304a2.46 2.46 0 011.04.848c.247.362.374.781.382 1.258h-1.62zm5.571 5.817c-.617 0-1.148-.125-1.593-.375a2.568 2.568 0 01-1.024-1.07c-.24-.464-.36-1.012-.36-1.645 0-.617.12-1.159.36-1.625.24-.466.577-.83 1.012-1.09.437-.26.95-.39 1.539-.39.396 0 .764.064 1.106.191.343.125.643.314.898.567.258.252.458.57.601.953.144.38.215.825.215 1.336v.457H8.794V5.394h3.5c0-.24-.052-.451-.156-.636a1.12 1.12 0 00-.434-.434 1.237 1.237 0 00-.637-.16 1.28 1.28 0 00-.671.176c-.193.114-.344.27-.454.465-.109.192-.165.407-.168.644v.98c0 .297.055.554.164.77.112.216.27.383.473.5.203.117.444.176.723.176.185 0 .354-.026.508-.078a1.019 1.019 0 00.644-.617l1.54.101c-.079.37-.24.693-.481.969-.24.273-.55.487-.93.64-.378.152-.814.227-1.309.227zm6.551 0c-.614 0-1.143-.13-1.586-.39a2.64 2.64 0 01-1.015-1.094c-.235-.466-.352-1.003-.352-1.61 0-.614.119-1.153.356-1.617.24-.466.579-.83 1.02-1.09.44-.263.963-.394 1.57-.394.523 0 .981.095 1.374.285.394.19.705.457.934.8.23.344.356.748.379 1.212h-1.57c-.045-.3-.162-.54-.352-.723-.188-.185-.434-.277-.738-.277-.258 0-.483.07-.676.21-.19.139-.339.34-.445.606-.107.266-.16.587-.16.965 0 .383.052.708.156.976.107.269.256.473.449.614.193.14.418.21.676.21.19 0 .36-.038.512-.117a.989.989 0 00.378-.34c.102-.15.168-.331.2-.542h1.57a2.458 2.458 0 01-.375 1.21 2.265 2.265 0 01-.918.813c-.39.195-.853.293-1.387.293zm7.593-2.672V3h1.664v6h-1.598V7.91h-.062c-.136.352-.36.634-.676.848-.312.213-.694.32-1.144.32-.401 0-.754-.091-1.059-.273a1.88 1.88 0 01-.715-.778c-.17-.336-.255-.738-.258-1.207V3h1.664v3.523c.003.354.098.634.286.84.187.206.438.309.753.309.201 0 .389-.046.563-.137.174-.094.315-.232.422-.414.11-.182.163-.408.16-.676zM28.245 9V3h1.613v1.047h.063c.11-.373.293-.654.55-.844.259-.193.555-.29.891-.29a2.516 2.516 0 01.524.06v1.476a2.173 2.173 0 00-.325-.062 2.912 2.912 0 00-.378-.028 1.33 1.33 0 00-.657.16 1.18 1.18 0 00-.453.438c-.11.187-.164.404-.164.648V9h-1.664zm6.956.117c-.617 0-1.148-.125-1.594-.375a2.568 2.568 0 01-1.023-1.07c-.24-.464-.36-1.012-.36-1.645 0-.617.12-1.159.36-1.625.24-.466.577-.83 1.012-1.09.437-.26.95-.39 1.539-.39.396 0 .764.064 1.105.191.344.125.643.314.899.567.258.252.458.57.601.953.143.38.215.825.215 1.336v.457H32.89V5.394h3.5c0-.24-.052-.451-.157-.636a1.119 1.119 0 00-.433-.434 1.237 1.237 0 00-.637-.16 1.28 1.28 0 00-.672.176c-.193.114-.343.27-.453.465-.11.192-.165.407-.168.644v.98c0 .297.055.554.164.77a1.2 1.2 0 00.473.5c.203.117.444.176.722.176.185 0 .355-.026.508-.078a1.02 1.02 0 00.645-.617l1.539.101c-.078.37-.238.693-.48.969-.24.273-.55.487-.93.64-.378.152-.814.227-1.309.227zm7.413 2.133c-.21 0-.409-.017-.593-.05a2.164 2.164 0 01-.454-.122l.375-1.242c.196.06.371.092.528.097a.67.67 0 00.41-.109c.117-.078.212-.21.285-.398l.098-.254L41.11 3h1.75l1.242 4.406h.063L45.419 3h1.762l-2.332 6.648a2.79 2.79 0 01-.457.844c-.19.242-.431.428-.723.559-.292.133-.643.199-1.055.199zm7.936-2.133c-.607 0-1.132-.129-1.574-.387-.44-.26-.78-.622-1.02-1.086-.24-.466-.36-1.006-.36-1.62 0-.62.12-1.162.36-1.626.24-.466.58-.828 1.02-1.086.442-.26.967-.39 1.574-.39.607 0 1.13.13 1.57.39.443.258.784.62 1.024 1.086.24.464.359 1.006.359 1.625 0 .615-.12 1.155-.36 1.621A2.64 2.64 0 0152.12 8.73c-.44.258-.963.387-1.57.387zm.008-1.289c.276 0 .506-.078.691-.234.185-.16.324-.375.418-.649.096-.273.145-.584.145-.933 0-.35-.049-.66-.145-.934a1.454 1.454 0 00-.418-.648 1.023 1.023 0 00-.691-.239c-.279 0-.513.08-.703.239-.188.158-.33.375-.426.648-.094.273-.14.585-.14.934 0 .349.046.66.14.933.096.274.238.49.425.649.19.156.425.234.704.234zm7.875-1.383V3h1.664v6h-1.598V7.91h-.063c-.135.352-.36.634-.675.848-.313.213-.694.32-1.145.32-.4 0-.754-.091-1.058-.273a1.88 1.88 0 01-.715-.778c-.17-.336-.255-.738-.258-1.207V3h1.664v3.523c.003.354.098.634.285.84.188.206.439.309.754.309.2 0 .388-.046.563-.137.174-.094.315-.232.422-.414.109-.182.162-.408.16-.676zM61.428 9V3h1.613v1.047h.063c.109-.373.293-.654.55-.844.258-.193.555-.29.89-.29a2.517 2.517 0 01.524.06v1.476a2.175 2.175 0 00-.324-.062 2.912 2.912 0 00-.379-.028 1.33 1.33 0 00-.656.16 1.179 1.179 0 00-.617 1.086V9h-1.664zM71.7 3v1.25h-3.703V3h3.703zm-2.855 6V2.566c0-.435.084-.795.254-1.082.172-.286.406-.501.703-.644a2.3 2.3 0 011.011-.215c.256 0 .489.02.7.058.213.04.372.075.476.106l-.297 1.25a2.084 2.084 0 00-.242-.059 1.511 1.511 0 00-.289-.027c-.245 0-.415.057-.512.172-.096.112-.144.27-.144.473V9h-1.66zm3.872 0V3h1.664v6h-1.664zm.836-6.774a.904.904 0 01-.637-.246.798.798 0 01-.262-.597c0-.23.088-.426.262-.59a.896.896 0 01.637-.25c.247 0 .458.083.632.25.178.164.266.36.266.59a.792.792 0 01-.266.597.89.89 0 01-.632.246zm3.825 3.305V9h-1.664V3H77.3v1.058h.07c.133-.348.356-.625.668-.828.313-.205.692-.308 1.137-.308.416 0 .78.09 1.09.273.31.182.55.443.722.781.172.336.258.737.258 1.204V9h-1.664V5.476c.003-.367-.091-.653-.281-.859-.19-.208-.452-.312-.785-.312-.224 0-.422.048-.594.144-.17.096-.302.237-.399.422a1.462 1.462 0 00-.144.66zm6.89 3.582a2.5 2.5 0 01-1.024-.2 1.647 1.647 0 01-.71-.597c-.173-.265-.259-.596-.259-.992 0-.333.062-.613.184-.84.122-.226.289-.409.5-.547.21-.138.45-.242.719-.312.27-.07.554-.12.851-.149.35-.036.63-.07.844-.101.214-.034.369-.083.465-.149a.326.326 0 00.144-.289v-.023c0-.247-.078-.439-.234-.574-.154-.136-.372-.203-.656-.203-.3 0-.538.066-.715.199a.916.916 0 00-.352.492l-1.539-.125c.078-.365.232-.68.461-.945.23-.269.525-.474.887-.618a3.39 3.39 0 011.266-.218c.333 0 .652.039.957.117.307.078.579.2.816.363.24.164.428.375.566.633.139.255.207.561.207.918V9H86.07v-.832h-.047a1.694 1.694 0 01-.386.496c-.162.14-.356.251-.582.332a2.406 2.406 0 01-.785.117zm.476-1.148a1.4 1.4 0 00.649-.145c.187-.099.334-.232.441-.398.107-.167.16-.356.16-.567V6.22a.892.892 0 01-.215.093c-.088.026-.189.051-.3.075-.112.02-.225.04-.336.058l-.305.043a2.06 2.06 0 00-.512.137.818.818 0 00-.34.254.619.619 0 00-.12.39c0 .227.081.4.245.52.167.117.378.176.633.176zm5.858-2.434V9h-1.664V3h1.585v1.058h.07c.134-.348.356-.625.669-.828.312-.205.691-.308 1.136-.308.417 0 .78.09 1.09.273.31.182.551.443.723.781.172.336.258.737.258 1.204V9h-1.664V5.476c.002-.367-.091-.653-.282-.859-.19-.208-.451-.312-.785-.312-.224 0-.422.048-.594.144-.169.096-.302.237-.398.422a1.461 1.461 0 00-.144.66zm7.89 3.586c-.615 0-1.144-.13-1.587-.39a2.64 2.64 0 01-1.015-1.094c-.235-.466-.352-1.003-.352-1.61 0-.614.119-1.153.355-1.617.24-.466.58-.83 1.02-1.09.44-.263.964-.394 1.57-.394.524 0 .982.095 1.375.285.394.19.705.457.934.8.229.344.355.748.379 1.212h-1.57c-.045-.3-.162-.54-.352-.723-.188-.185-.434-.277-.738-.277-.258 0-.483.07-.676.21-.19.139-.339.34-.445.606-.107.266-.16.587-.16.965 0 .383.052.708.156.976.106.269.256.473.449.614.193.14.418.21.676.21.19 0 .36-.038.511-.117a.988.988 0 00.38-.34c.1-.15.167-.331.199-.542h1.57a2.458 2.458 0 01-.375 1.21 2.26 2.26 0 01-.918.813c-.39.195-.853.293-1.387.293zM102.236 9V3h1.664v6h-1.664zm.836-6.774a.903.903 0 01-.636-.246.796.796 0 01-.262-.597.78.78 0 01.262-.59.895.895 0 01.636-.25c.248 0 .459.083.633.25.177.164.266.36.266.59a.793.793 0 01-.266.597.89.89 0 01-.633.246zm3.872 6.887a2.5 2.5 0 01-1.023-.2 1.642 1.642 0 01-.711-.597c-.172-.265-.258-.596-.258-.992 0-.333.061-.613.184-.84.122-.226.289-.409.5-.547.211-.138.45-.242.718-.312.271-.07.555-.12.852-.149.349-.036.63-.07.844-.101.213-.034.368-.083.465-.149a.327.327 0 00.144-.289v-.023c0-.247-.078-.439-.234-.574-.154-.136-.373-.203-.656-.203-.3 0-.538.066-.715.199a.916.916 0 00-.352.492l-1.539-.125c.078-.365.232-.68.461-.945.229-.269.525-.474.887-.618a3.386 3.386 0 011.265-.218c.334 0 .653.039.957.117.308.078.58.2.817.363.239.164.428.375.566.633.138.255.207.561.207.918V9h-1.578v-.832h-.047a1.693 1.693 0 01-.386.496c-.162.14-.356.251-.583.332a2.402 2.402 0 01-.785.117zm.477-1.148c.245 0 .461-.048.648-.145.188-.099.335-.232.442-.398.106-.167.16-.356.16-.567V6.22a.894.894 0 01-.215.093 3.98 3.98 0 01-.301.075c-.112.02-.224.04-.336.058l-.304.043a2.054 2.054 0 00-.512.137.82.82 0 00-.34.254.617.617 0 00-.121.39c0 .227.082.4.246.52.167.117.378.176.633.176zM113.279 1v8h-1.664V1h1.664zm7.106 2v1.25h-3.703V3h3.703zm-2.856 6V2.566c0-.435.085-.795.254-1.082.172-.286.406-.501.703-.644a2.3 2.3 0 011.012-.215c.255 0 .488.02.699.058a4.8 4.8 0 01.477.106l-.297 1.25a2.09 2.09 0 00-.242-.059 1.512 1.512 0 00-.289-.027c-.245 0-.416.057-.512.172-.096.112-.145.27-.145.473V9h-1.66zm7.72-2.555V3h1.664v6h-1.598V7.91h-.062a1.77 1.77 0 01-.676.848c-.312.213-.694.32-1.144.32-.401 0-.754-.091-1.059-.273a1.88 1.88 0 01-.715-.778c-.169-.336-.255-.738-.258-1.207V3h1.664v3.523c.003.354.098.634.286.84.187.206.438.309.753.309.201 0 .389-.046.563-.137.174-.094.315-.232.422-.414.109-.182.163-.408.16-.676zM131.436 3v1.25h-3.614V3h3.614zm-2.793-1.438h1.664v5.594c0 .154.023.274.07.36a.389.389 0 00.195.175c.086.034.185.051.297.051.078 0 .156-.006.235-.02l.179-.035.262 1.239a4.665 4.665 0 01-.352.09 2.81 2.81 0 01-.55.066 2.53 2.53 0 01-1.055-.16 1.466 1.466 0 01-.699-.57c-.167-.258-.249-.584-.246-.977V1.562zm7.724 4.883V3h1.664v6h-1.597V7.91h-.063a1.77 1.77 0 01-.676.848c-.312.213-.694.32-1.144.32-.401 0-.754-.091-1.059-.273a1.886 1.886 0 01-.715-.778c-.169-.336-.255-.738-.257-1.207V3h1.664v3.523c.002.354.097.634.285.84.187.206.439.309.754.309.2 0 .388-.046.562-.137.175-.094.315-.232.422-.414.109-.182.163-.408.16-.676zM139.362 9V3h1.614v1.047h.062c.109-.373.293-.654.551-.844.258-.193.555-.29.89-.29a2.51 2.51 0 01.524.06v1.476a2.92 2.92 0 00-.703-.09c-.245 0-.464.054-.656.16a1.176 1.176 0 00-.618 1.086V9h-1.664zm6.956.117c-.617 0-1.148-.125-1.593-.375a2.57 2.57 0 01-1.024-1.07c-.239-.464-.359-1.012-.359-1.645 0-.617.12-1.159.359-1.625a2.66 2.66 0 011.012-1.09c.437-.26.95-.39 1.539-.39.396 0 .764.064 1.105.191.344.125.644.314.899.567.258.252.458.57.601.953.144.38.215.825.215 1.336v.457h-5.066V5.394h3.5c0-.24-.052-.451-.156-.636a1.125 1.125 0 00-.434-.434 1.237 1.237 0 00-.637-.16c-.252 0-.476.059-.672.176-.192.114-.343.27-.453.465a1.321 1.321 0 00-.168.644v.98c0 .297.055.554.164.77.112.216.27.383.473.5.203.117.444.176.723.176.185 0 .354-.026.508-.078a1.02 1.02 0 00.644-.617l1.539.101c-.078.37-.238.693-.48.969-.24.273-.55.487-.93.64-.378.152-.814.227-1.309.227zM1.195 22v-8H2.86v3.008h.051a2.2 2.2 0 01.317-.492c.14-.17.322-.31.546-.422.227-.115.508-.172.844-.172.438 0 .841.114 1.211.343.37.227.665.57.887 1.028.221.456.332 1.027.332 1.715 0 .669-.108 1.234-.324 1.695-.214.458-.506.806-.875 1.043a2.246 2.246 0 01-1.235.352c-.323 0-.597-.054-.824-.16a1.705 1.705 0 01-.55-.403 2.041 2.041 0 01-.329-.496h-.074v.96h-1.64zm1.63-3c0 .357.049.668.148.933.099.266.242.473.43.622.187.145.415.218.683.218.27 0 .5-.074.687-.222.188-.151.33-.36.426-.625.1-.269.149-.577.149-.926 0-.346-.049-.651-.145-.914a1.362 1.362 0 00-.426-.617 1.08 1.08 0 00-.691-.223c-.27 0-.5.072-.688.215a1.348 1.348 0 00-.425.61 2.637 2.637 0 00-.149.929zm6.166 5.25c-.21 0-.409-.017-.594-.05a2.164 2.164 0 01-.453-.122l.375-1.242c.196.06.371.092.528.098a.67.67 0 00.41-.11c.117-.078.212-.21.285-.398l.098-.254L7.487 16h1.75l1.242 4.406h.063L11.796 16h1.762l-2.332 6.648a2.793 2.793 0 01-.457.844c-.19.242-.431.428-.723.559-.292.133-.643.199-1.055.199zM20.146 16v1.25h-3.613V16h3.613zm-2.793-1.438h1.665v5.594c0 .154.023.274.07.36a.388.388 0 00.195.175c.086.034.185.051.297.051.078 0 .156-.006.235-.02l.18-.035.26 1.239c-.082.026-.2.056-.35.09a2.814 2.814 0 01-.552.066 2.53 2.53 0 01-1.054-.16 1.472 1.472 0 01-.7-.57c-.166-.258-.248-.584-.245-.977v-5.813zM21.23 22v-6h1.614v1.047h.062c.11-.373.293-.654.551-.844.258-.193.555-.29.89-.29a2.497 2.497 0 01.524.06v1.476a2.917 2.917 0 00-.703-.09c-.245 0-.464.054-.656.16a1.18 1.18 0 00-.453.438c-.11.187-.165.404-.165.648V22h-1.663zm6.04.113c-.382 0-.723-.066-1.023-.2a1.648 1.648 0 01-.71-.597c-.173-.265-.259-.596-.259-.992 0-.333.062-.613.184-.84.122-.226.289-.409.5-.547.21-.138.45-.242.719-.312.27-.07.554-.12.851-.149.35-.036.63-.07.844-.101.213-.034.368-.084.465-.149a.326.326 0 00.144-.289v-.023c0-.248-.078-.439-.234-.574-.154-.136-.372-.203-.656-.203-.3 0-.538.066-.715.199a.917.917 0 00-.352.492l-1.539-.125a2.09 2.09 0 01.461-.945c.23-.268.525-.474.887-.617a3.392 3.392 0 011.265-.22c.334 0 .653.04.958.118.307.078.579.2.816.363.24.164.428.375.566.633.138.255.207.561.207.918V22h-1.578v-.832h-.047a1.691 1.691 0 01-.386.496 1.79 1.79 0 01-.582.332 2.407 2.407 0 01-.786.117zm.477-1.148a1.4 1.4 0 00.648-.145 1.15 1.15 0 00.442-.398c.107-.167.16-.356.16-.567v-.636a.892.892 0 01-.215.093c-.088.026-.189.051-.3.075-.113.02-.224.04-.337.058l-.304.043a2.056 2.056 0 00-.512.137.818.818 0 00-.34.254.618.618 0 00-.12.39c0 .227.081.4.245.52.167.117.378.176.633.176zm6.404 1.133c-.455 0-.868-.118-1.238-.352-.367-.237-.659-.585-.875-1.043-.213-.46-.32-1.026-.32-1.695 0-.688.11-1.26.332-1.715.221-.459.515-.8.883-1.027.37-.23.774-.344 1.215-.344.335 0 .615.057.84.172.226.112.408.252.546.421.14.167.248.331.32.493h.051V14h1.66v8h-1.64v-.961h-.07a2.143 2.143 0 01-.332.496c-.141.162-.325.296-.551.402-.224.107-.498.16-.82.16zm.528-1.325c.268 0 .494-.073.68-.218.187-.149.33-.356.43-.622A2.61 2.61 0 0035.94 19c0-.357-.049-.667-.148-.93a1.335 1.335 0 00-.43-.61 1.093 1.093 0 00-.683-.214 1.08 1.08 0 00-.692.223c-.187.148-.33.354-.425.617a2.652 2.652 0 00-.145.914c0 .349.048.657.145.926.099.265.24.474.425.625.188.148.418.222.692.222zM38.934 22v-6h1.664v6h-1.664zm.836-6.774a.904.904 0 01-.637-.246.798.798 0 01-.262-.597c0-.23.087-.426.262-.59a.897.897 0 01.636-.25c.248 0 .459.083.633.25.177.164.266.36.266.59a.792.792 0 01-.266.597.89.89 0 01-.633.246zm3.825 3.305V22H41.93v-6h1.586v1.058h.07c.133-.349.355-.625.668-.828.312-.205.691-.308 1.137-.308.416 0 .78.09 1.09.273.31.183.55.443.722.781.172.336.258.737.258 1.204V22h-1.664v-3.524c.002-.367-.091-.653-.281-.859-.19-.208-.452-.312-.786-.312-.224 0-.421.048-.593.144-.17.096-.302.237-.399.422a1.46 1.46 0 00-.144.66zm7.882 5.844c-.54 0-1.002-.074-1.387-.223-.383-.146-.688-.345-.914-.597a1.837 1.837 0 01-.442-.852l1.54-.207c.046.12.12.232.222.336.102.104.236.187.402.25.17.065.375.098.618.098.362 0 .66-.089.894-.266.237-.175.356-.468.356-.879v-1.098h-.07a1.582 1.582 0 01-.329.473c-.146.148-.333.27-.562.363-.23.094-.503.14-.82.14-.451 0-.861-.103-1.231-.312-.367-.21-.66-.532-.879-.964-.216-.435-.324-.985-.324-1.649 0-.68.11-1.247.332-1.703.221-.456.515-.797.883-1.023.37-.227.774-.34 1.215-.34.335 0 .617.057.843.172.227.112.41.252.547.421.14.167.249.331.324.493h.063V16h1.652v6.058c0 .51-.125.938-.375 1.282-.25.343-.596.601-1.039.773-.44.175-.947.262-1.52.262zm.035-3.711c.268 0 .495-.067.68-.2.187-.135.33-.327.43-.577.1-.253.151-.555.151-.907 0-.351-.049-.656-.148-.914a1.336 1.336 0 00-.43-.605 1.093 1.093 0 00-.683-.215 1.08 1.08 0 00-.692.223c-.187.145-.33.349-.425.609-.097.26-.145.561-.145.902 0 .347.048.646.145.899.098.25.24.444.425.582.188.135.418.203.692.203zM59.464 22l-1.633-6h1.684l.93 4.031h.054L61.468 16h1.652l.985 4.008h.05L65.07 16h1.68l-1.629 6h-1.762l-1.03-3.774h-.075L61.222 22h-1.758zm8.173 0v-6H69.3v6h-1.664zm.836-6.774a.904.904 0 01-.637-.246.798.798 0 01-.262-.597c0-.23.088-.426.262-.59a.897.897 0 01.637-.25c.247 0 .458.083.633.25.177.164.265.36.265.59a.792.792 0 01-.265.597.89.89 0 01-.633.246zm5.352.774v1.25h-3.613V16h3.613zm-2.793-1.438h1.664v5.594c0 .154.024.274.07.36a.388.388 0 00.196.175c.086.034.185.051.297.051.078 0 .156-.006.234-.02l.18-.035.262 1.239c-.084.026-.201.056-.352.09a2.814 2.814 0 01-.55.066 2.53 2.53 0 01-1.055-.16 1.472 1.472 0 01-.7-.57c-.166-.258-.248-.584-.246-.977v-5.813zm5.67 3.97V22h-1.664v-8h1.617v3.058h.07c.136-.354.355-.631.657-.832.302-.203.68-.304 1.137-.304.416 0 .78.09 1.09.273.312.18.554.439.726.777.174.336.26.739.258 1.208V22h-1.664v-3.524c.002-.37-.091-.657-.282-.863-.187-.206-.45-.308-.789-.308-.226 0-.427.048-.601.144a1.025 1.025 0 00-.406.422 1.429 1.429 0 00-.149.66zM84.48 22v-8h3.156c.607 0 1.123.116 1.55.348.428.229.753.548.977.957.227.406.34.875.34 1.406 0 .531-.115 1-.344 1.406-.229.406-.561.723-.996.95-.432.226-.956.34-1.57.34H85.58V18.05h1.738c.326 0 .594-.056.805-.168.214-.115.372-.272.477-.473a1.48 1.48 0 00.16-.7c0-.265-.054-.497-.16-.695a1.069 1.069 0 00-.477-.464c-.213-.112-.484-.168-.813-.168h-1.14V22h-1.692zm7.09 0v-6h1.614v1.047h.062c.11-.373.293-.654.55-.844.259-.193.556-.29.891-.29a2.496 2.496 0 01.524.06v1.476a2.917 2.917 0 00-.703-.09 1.33 1.33 0 00-.656.16 1.18 1.18 0 00-.454.438c-.109.187-.164.404-.164.648V22H91.57zm4.501 0v-6h1.664v6h-1.664zm.836-6.774a.904.904 0 01-.636-.246.798.798 0 01-.262-.597c0-.23.087-.426.261-.59a.897.897 0 01.637-.25c.248 0 .459.083.633.25.177.164.266.36.266.59a.792.792 0 01-.266.597.89.89 0 01-.633.246zM99.068 22v-6h1.586v1.058h.071c.125-.351.333-.628.625-.832.291-.203.64-.304 1.046-.304.412 0 .762.103 1.051.308.289.203.482.48.578.828h.063c.122-.343.344-.618.664-.824.323-.208.704-.312 1.144-.312.56 0 1.015.178 1.364.535.351.354.527.857.527 1.508V22h-1.66v-3.707c0-.334-.089-.584-.266-.75a.93.93 0 00-.664-.25c-.302 0-.537.096-.707.289-.169.19-.254.441-.254.754V22h-1.613v-3.742c0-.295-.085-.529-.254-.703-.167-.175-.387-.262-.66-.262a.915.915 0 00-.5.14.965.965 0 00-.348.387 1.229 1.229 0 00-.129.578V22h-1.664zm12.768.117c-.617 0-1.148-.125-1.594-.375a2.562 2.562 0 01-1.023-1.07c-.24-.464-.36-1.012-.36-1.645 0-.617.12-1.159.36-1.625.239-.466.577-.83 1.011-1.09.438-.26.951-.39 1.54-.39.395 0 .764.064 1.105.191.344.125.643.314.898.567.258.252.459.57.602.953.143.38.215.825.215 1.336v.457h-5.067v-1.032h3.5c0-.24-.052-.451-.156-.636a1.123 1.123 0 00-.433-.434 1.24 1.24 0 00-.637-.16c-.253 0-.477.058-.672.176-.193.114-.344.27-.453.465a1.32 1.32 0 00-.168.644v.98c0 .297.055.554.164.77.112.216.27.383.473.5.203.117.444.176.722.176.185 0 .354-.026.508-.078a1.06 1.06 0 00.395-.235c.109-.104.192-.231.25-.382l1.539.101c-.078.37-.239.693-.481.969a2.407 2.407 0 01-.929.64c-.378.151-.814.227-1.309.227zM117.293 14l1.613 2.726h.063L120.59 14h1.91l-2.441 4 2.496 4h-1.946l-1.64-2.73h-.063l-1.64 2.73h-1.938l2.504-4-2.457-4h1.918zm6.277 8v-8h3.203c.589 0 1.08.087 1.473.262.393.174.689.416.887.726.198.308.297.662.297 1.063 0 .312-.063.587-.188.824a1.623 1.623 0 01-.515.578 2.122 2.122 0 01-.743.316v.079a1.822 1.822 0 011.508.926c.167.283.25.622.25 1.015 0 .424-.105.803-.316 1.137-.209.33-.517.592-.926.785-.409.193-.913.289-1.512.289h-3.418zm1.692-1.383h1.379c.471 0 .815-.09 1.031-.27a.903.903 0 00.324-.726c0-.221-.053-.417-.16-.586a1.09 1.09 0 00-.457-.398 1.562 1.562 0 00-.699-.145h-1.418v2.125zm0-3.27h1.254c.231 0 .437-.04.617-.12.182-.084.325-.201.43-.352a.922.922 0 00.16-.543.877.877 0 00-.309-.7c-.203-.176-.492-.265-.867-.265h-1.285v1.98zm5.276-1.953V14h6.57v1.394h-2.449V22h-1.672v-6.606h-2.449z" fill="#fff"/></svg>