<svg width="117" height="34" viewBox="0 0 117 34" fill="none" xmlns="http://www.w3.org/2000/svg"><rect x=".603" y=".271" width="116.009" height="33.418" rx="4.402" fill="#fff"/><path d="M24.052 14.266a1.234 1.234 0 00-.533-.922c-.31-.22-.715-.33-1.212-.33-.35 0-.65.053-.9.158-.25.106-.441.249-.574.43-.132.18-.2.387-.203.619 0 .193.044.36.13.502.091.141.213.262.367.361.154.097.324.178.511.245.187.066.375.122.565.167l.868.217c.35.081.686.191 1.008.33.326.139.617.313.873.524.259.211.464.466.615.764.15.299.226.648.226 1.05a2.51 2.51 0 01-.416 1.432c-.278.41-.678.731-1.203.963-.521.23-1.153.344-1.894.344-.72 0-1.346-.112-1.876-.335-.528-.223-.94-.548-1.239-.976-.295-.428-.455-.95-.48-1.565h1.651c.024.323.123.591.298.805.175.214.403.374.683.48.283.105.6.158.95.158.364 0 .684-.055.958-.163.277-.112.494-.265.65-.461.157-.2.237-.431.24-.696a.885.885 0 00-.212-.597 1.557 1.557 0 00-.583-.398 5.62 5.62 0 00-.868-.29l-1.054-.27c-.762-.197-1.365-.493-1.808-.891-.44-.401-.66-.933-.66-1.596 0-.546.148-1.023.443-1.433.298-.41.704-.728 1.216-.954.513-.23 1.093-.344 1.74-.344.658 0 1.233.115 1.728.344.497.226.887.54 1.17.945.284.4.43.862.439 1.383h-1.614zm6.631-.23V15.3h-3.992v-1.265h3.992zm-3.006-1.664h1.636v6.519c0 .22.033.389.1.506.069.115.16.193.27.235.113.043.236.064.372.064.102 0 .196-.008.28-.023a2.43 2.43 0 00.199-.04l.276 1.279c-.088.03-.213.063-.376.1-.16.035-.355.056-.587.063a2.67 2.67 0 01-1.108-.186 1.722 1.722 0 01-.782-.642c-.19-.29-.283-.65-.28-1.085v-6.79zm6.373 8.748c-.44 0-.836-.079-1.189-.235a1.941 1.941 0 01-.832-.706c-.202-.31-.303-.693-.303-1.148 0-.392.073-.716.217-.972a1.68 1.68 0 01.592-.615c.25-.153.532-.27.846-.348.316-.081.643-.14.98-.176.408-.042.738-.08.991-.113.253-.036.437-.09.552-.163.117-.075.176-.191.176-.348v-.027c0-.34-.101-.604-.303-.791-.202-.187-.493-.28-.873-.28-.4 0-.718.087-.954.262a1.3 1.3 0 00-.47.619l-1.528-.217c.12-.422.32-.775.597-1.058.277-.286.616-.5 1.017-.642a3.89 3.89 0 011.33-.217c.334 0 .667.04.998.118.332.078.635.208.91.388.273.178.493.42.66.728.168.308.252.692.252 1.153v4.648h-1.573v-.954h-.054c-.1.193-.24.373-.42.542-.178.166-.403.3-.674.403-.268.099-.583.149-.945.149zm.425-1.203c.328 0 .613-.065.854-.194.242-.133.427-.308.556-.525.133-.217.2-.453.2-.71v-.818a.772.772 0 01-.263.118c-.12.036-.256.068-.407.095-.15.027-.3.051-.447.072-.148.021-.276.04-.385.054a2.858 2.858 0 00-.655.163c-.193.075-.345.181-.457.317a.774.774 0 00-.167.515c0 .301.11.529.33.683.22.153.5.23.84.23zm4.887 1.063v-6.944h1.587v1.157h.072c.127-.4.344-.71.651-.927.31-.22.665-.33 1.063-.33.09 0 .19.005.302.014.115.006.21.016.285.031v1.506a1.722 1.722 0 00-.33-.063 3.036 3.036 0 00-.43-.032c-.298 0-.566.065-.804.194-.235.127-.42.303-.556.53a1.49 1.49 0 00-.203.781v4.083h-1.637zm8.888-6.944V15.3h-3.992v-1.265h3.992zm-3.006-1.664h1.636v6.519c0 .22.033.389.1.506.069.115.16.193.27.235.112.043.236.064.372.064.102 0 .196-.008.28-.023.087-.015.154-.028.199-.04l.276 1.279c-.088.03-.213.063-.376.1-.16.035-.355.056-.587.063a2.67 2.67 0 01-1.108-.186 1.722 1.722 0 01-.782-.642c-.19-.29-.283-.65-.28-1.085v-6.79zm7.198.755V11.72h7.387v1.406h-2.862v7.853h-1.663v-7.853h-2.862zm8.018 7.853v-6.944h1.587v1.157h.072c.126-.4.343-.71.65-.927.311-.22.665-.33 1.063-.33.09 0 .192.005.303.014.115.006.21.016.285.031v1.506a1.722 1.722 0 00-.33-.063 3.037 3.037 0 00-.43-.032c-.298 0-.566.065-.804.194-.235.127-.42.303-.556.53a1.49 1.49 0 00-.204.781v4.083H60.46zm6.921.14c-.44 0-.836-.079-1.189-.235a1.941 1.941 0 01-.832-.706c-.202-.31-.303-.693-.303-1.148 0-.392.073-.716.217-.972.145-.256.342-.461.593-.615.25-.153.531-.27.845-.348.316-.081.643-.14.981-.176.407-.042.737-.08.99-.113.253-.036.437-.09.552-.163.117-.075.176-.191.176-.348v-.027c0-.34-.101-.604-.303-.791-.202-.187-.493-.28-.873-.28-.4 0-.718.087-.953.262a1.3 1.3 0 00-.47.619l-1.529-.217c.12-.422.32-.775.597-1.058.277-.286.617-.5 1.017-.642a3.89 3.89 0 011.33-.217c.334 0 .667.04.999.118.331.078.634.208.908.388.275.178.495.42.66.728.17.308.254.692.254 1.153v4.648h-1.574v-.954h-.054c-.1.193-.24.373-.42.542-.178.166-.403.3-.674.403-.268.099-.583.149-.945.149zm.425-1.203c.329 0 .613-.065.855-.194.24-.133.426-.308.555-.525.133-.217.2-.453.2-.71v-.818a.773.773 0 01-.263.118c-.12.036-.256.068-.407.095-.15.027-.3.051-.447.072-.148.021-.276.04-.385.054a2.858 2.858 0 00-.655.163c-.193.075-.345.181-.457.317a.774.774 0 00-.167.515c0 .301.11.529.33.683.22.153.5.23.841.23zm7.464 1.185c-.546 0-1.034-.14-1.465-.42-.43-.281-.771-.688-1.022-1.221-.25-.534-.375-1.182-.375-1.944 0-.772.127-1.423.38-1.953.256-.534.601-.936 1.035-1.207a2.66 2.66 0 011.452-.412c.406 0 .74.07 1.003.208.262.136.47.3.624.493.154.19.273.37.357.538h.068V11.72h1.641v9.259h-1.61v-1.094h-.099a2.794 2.794 0 01-.366.538c-.16.186-.37.346-.633.479-.262.132-.592.199-.99.199zm.457-1.343c.346 0 .641-.093.886-.28.244-.19.43-.454.556-.791.126-.338.19-.731.19-1.18 0-.45-.064-.84-.19-1.171a1.667 1.667 0 00-.552-.773c-.24-.184-.538-.276-.89-.276-.365 0-.67.095-.914.285-.244.19-.428.452-.551.786a3.3 3.3 0 00-.186 1.149c0 .434.062.82.186 1.162.126.337.312.604.556.8.247.193.55.289.909.289zm4.985 1.22v-6.943h1.636v6.944h-1.636zm.823-7.929a.955.955 0 01-.67-.258.831.831 0 01-.28-.628c0-.247.094-.457.28-.628a.945.945 0 01.67-.263c.262 0 .485.088.669.263.187.171.28.38.28.628a.83.83 0 01-.28.628.945.945 0 01-.67.258zm4.133 3.86v4.07H84.03v-6.944h1.565v1.18h.081c.16-.39.414-.698.764-.927.353-.23.788-.344 1.306-.344.48 0 .897.103 1.253.308.358.204.636.501.832.89.199.389.297.86.294 1.415v4.422h-1.637V16.81c0-.464-.12-.827-.362-1.09-.238-.261-.568-.393-.99-.393a1.52 1.52 0 00-.764.19c-.22.124-.393.303-.52.538-.123.235-.185.52-.185.855zm9.141 6.818c-.588 0-1.093-.08-1.514-.24-.422-.156-.761-.367-1.018-.632a2.192 2.192 0 01-.533-.882l1.474-.357c.066.136.162.27.29.402.126.136.296.248.51.335.217.09.49.136.818.136.464 0 .849-.113 1.153-.34.304-.223.457-.59.457-1.103v-1.315h-.082a2.322 2.322 0 01-.37.52c-.16.178-.373.327-.638.447-.262.12-.592.181-.99.181a2.853 2.853 0 01-1.451-.375c-.431-.253-.775-.63-1.03-1.13-.254-.504-.38-1.134-.38-1.89 0-.762.126-1.406.38-1.93.255-.528.6-.927 1.034-1.198a2.66 2.66 0 011.452-.412c.406 0 .741.07 1.003.208.265.136.476.3.633.493.157.19.276.37.357.538h.09v-1.148h1.615v7.057c0 .593-.142 1.085-.425 1.473a2.55 2.55 0 01-1.162.873c-.492.193-1.05.29-1.673.29zm.014-4.132c.346 0 .642-.084.886-.253a1.56 1.56 0 00.556-.728c.126-.316.19-.696.19-1.139 0-.437-.064-.82-.19-1.148a1.639 1.639 0 00-.552-.764c-.24-.184-.538-.276-.89-.276-.365 0-.67.095-.914.285-.244.19-.428.45-.551.782a3.168 3.168 0 00-.186 1.121c0 .425.062.797.186 1.117.126.316.312.563.556.741.247.175.55.262.909.262z" fill="#3760FF"/></svg>