<svg width="76" height="20" viewBox="0 0 76 20" fill="none" xmlns="http://www.w3.org/2000/svg"><g clip-path="url(#clip0_1080_2624)"><rect x=".5" y=".636" width="75" height="19" rx="2.898" fill="#fff"/><path d="M10.67 8.363a.97.97 0 00-.42-.724c-.243-.173-.56-.26-.951-.26-.275 0-.51.042-.707.125a1.046 1.046 0 00-.45.337.82.82 0 00-.057.88.941.941 0 00.287.285c.12.076.255.14.401.192.147.052.295.095.444.131l.682.17c.275.064.539.15.792.26.256.109.484.246.685.412.204.165.365.365.483.6.119.234.178.509.178.824 0 .426-.109.8-.327 1.125-.218.322-.532.574-.944.757-.41.18-.906.27-1.488.27-.566 0-1.057-.088-1.474-.263a2.195 2.195 0 01-.973-.767c-.232-.336-.358-.746-.376-1.229H7.75c.019.253.097.464.234.632.137.168.316.294.536.377.223.082.471.124.746.124.287 0 .537-.043.753-.128a1.22 1.22 0 00.511-.362.875.875 0 00.188-.547.695.695 0 00-.166-.469 1.222 1.222 0 00-.459-.312 4.41 4.41 0 00-.681-.228l-.828-.213c-.599-.154-1.072-.387-1.42-.7-.346-.314-.519-.732-.519-1.253 0-.428.116-.804.348-1.126a2.3 2.3 0 01.956-.749c.402-.18.858-.27 1.367-.27.516 0 .968.09 1.356.27.39.178.697.425.92.742.223.315.337.677.345 1.087H10.67zm5.208-.181v.994h-3.135v-.994h3.135zm-2.361-1.307h1.285v5.12c0 .174.026.306.079.399.054.09.125.151.213.184.087.033.184.05.29.05.081 0 .155-.006.22-.018a1.88 1.88 0 00.157-.032l.217 1.005c-.069.024-.167.05-.295.078-.125.029-.28.045-.462.05a2.096 2.096 0 01-.87-.146 1.354 1.354 0 01-.614-.504c-.15-.227-.223-.511-.22-.852V6.875zm5.006 6.872c-.346 0-.657-.062-.934-.185a1.524 1.524 0 01-.653-.554c-.159-.244-.238-.545-.238-.902 0-.308.057-.562.17-.764.114-.2.269-.362.466-.482.196-.121.417-.212.663-.274.25-.064.506-.11.771-.138.32-.034.579-.063.778-.09.199-.028.343-.07.433-.127.092-.06.139-.15.139-.274v-.02c0-.268-.08-.475-.238-.622-.159-.147-.387-.22-.686-.22-.315 0-.564.068-.749.206-.182.137-.305.299-.37.486l-1.2-.17c.095-.332.251-.609.47-.831.217-.225.483-.393.798-.505.315-.113.663-.17 1.044-.17.263 0 .524.03.785.092.26.062.498.164.714.306.215.14.388.33.518.571.133.242.2.544.2.906v3.65h-1.237v-.749h-.042a1.57 1.57 0 01-.33.426 1.59 1.59 0 01-.53.316c-.21.079-.458.118-.742.118zm.334-.945c.258 0 .482-.05.671-.153a1.13 1.13 0 00.437-.412c.104-.17.156-.356.156-.557v-.643a.604.604 0 01-.206.092 2.915 2.915 0 01-.32.075 9.67 9.67 0 01-.351.057l-.302.042a2.242 2.242 0 00-.515.128.856.856 0 00-.358.249.608.608 0 00-.132.405c0 .236.087.415.26.536.172.12.392.181.66.181zm3.839.835V8.181h1.246v.909H24a1.36 1.36 0 011.346-.987c.07 0 .15.003.238.01a1.6 1.6 0 01.224.025v1.183a1.353 1.353 0 00-.26-.05 2.385 2.385 0 00-.337-.025 1.3 1.3 0 00-.632.153c-.185.1-.33.238-.437.415a1.17 1.17 0 00-.16.615v3.207h-1.285zm6.981-5.455v.994h-3.136v-.994h3.136zm-2.361-1.307H28.6v5.12c0 .174.026.306.078.399.055.09.126.151.213.184.088.033.185.05.292.05.08 0 .153-.006.22-.018.068-.012.12-.022.156-.032l.217 1.005c-.069.024-.167.05-.295.078-.126.029-.28.045-.462.05a2.097 2.097 0 01-.87-.146 1.353 1.353 0 01-.614-.504c-.15-.227-.223-.511-.22-.852V6.875zm5.654.593V6.364h5.803v1.104h-2.248v6.168h-1.307V7.468H32.97zm6.298 6.168V8.183h1.246v.909h.057c.1-.315.27-.558.512-.728.243-.173.522-.26.834-.26.071 0 .15.004.238.011a1.6 1.6 0 01.224.025v1.183a1.35 1.35 0 00-.26-.05 2.386 2.386 0 00-.337-.025 1.3 1.3 0 00-.632.153c-.185.1-.33.238-.437.415-.106.178-.16.383-.16.615v3.207h-1.285zm5.437.11c-.346 0-.657-.061-.934-.184a1.524 1.524 0 01-.654-.554c-.158-.244-.238-.545-.238-.902 0-.308.057-.562.17-.764.114-.2.27-.362.466-.482.197-.121.418-.212.664-.274.249-.064.506-.11.77-.138.32-.034.58-.063.779-.09.198-.028.343-.07.433-.127.092-.06.138-.15.138-.274v-.02c0-.268-.08-.475-.238-.622-.158-.147-.387-.22-.685-.22-.315 0-.565.068-.75.206-.182.137-.305.299-.369.486l-1.2-.17c.095-.332.25-.609.469-.831a2.04 2.04 0 01.799-.505c.315-.113.663-.17 1.044-.17.263 0 .524.03.785.092.26.062.498.164.713.306.216.14.389.33.519.571.132.242.199.544.199.906v3.65h-1.236v-.749h-.043a1.569 1.569 0 01-.86.742c-.21.079-.457.118-.741.118zm.334-.944c.258 0 .481-.05.67-.153a1.13 1.13 0 00.438-.412c.104-.17.156-.356.156-.557v-.643a.603.603 0 01-.206.092 2.92 2.92 0 01-.32.075 9.71 9.71 0 01-.351.057l-.302.042a2.243 2.243 0 00-.515.128.856.856 0 00-.359.249.608.608 0 00-.131.405c0 .236.086.415.259.536.173.12.393.181.66.181zm5.862.93c-.428 0-.812-.11-1.15-.33-.339-.22-.606-.54-.803-.959-.196-.419-.294-.928-.294-1.527 0-.606.099-1.117.298-1.534.201-.419.472-.735.813-.948a2.09 2.09 0 011.14-.323c.32 0 .582.054.788.163.206.107.37.236.49.387.121.15.215.29.281.423h.053v-2.72h1.29v7.272h-1.265v-.859h-.078a2.197 2.197 0 01-.288.423 1.583 1.583 0 01-.497.376c-.206.104-.465.156-.778.156zm.36-1.054c.271 0 .503-.074.695-.22.192-.15.337-.357.437-.622.1-.265.15-.574.15-.927 0-.353-.05-.66-.15-.92a1.308 1.308 0 00-.433-.607 1.12 1.12 0 00-.7-.216c-.286 0-.525.074-.717.223-.192.15-.336.355-.433.618a2.593 2.593 0 00-.146.902c0 .341.049.645.146.913.099.265.245.475.436.628.194.152.432.228.714.228zm3.915.958V8.183h1.286v5.454h-1.286zm.646-6.228a.75.75 0 01-.525-.203.652.652 0 01-.22-.493c0-.194.073-.359.22-.494a.743.743 0 01.525-.206c.206 0 .382.069.526.206.147.135.22.3.22.494a.652.652 0 01-.22.493.742.742 0 01-.526.203zm3.247 3.032v3.197h-1.285V8.181h1.228v.927h.064c.126-.306.326-.548.6-.728.277-.18.62-.27 1.027-.27.376 0 .704.08.983.241.282.161.5.395.654.7.156.305.233.676.23 1.112v3.473h-1.285v-3.275c0-.364-.095-.65-.284-.855-.187-.206-.446-.31-.778-.31-.225 0-.425.05-.6.15a1.034 1.034 0 00-.408.422 1.427 1.427 0 00-.146.671zm7.18 5.356c-.461 0-.858-.063-1.19-.189a2.115 2.115 0 01-.798-.497 1.721 1.721 0 01-.42-.692l1.158-.28c.053.106.128.211.228.315.1.107.233.194.401.263.17.071.385.107.643.107.364 0 .666-.09.905-.267.24-.175.359-.464.359-.866v-1.034h-.064a1.826 1.826 0 01-.291.409 1.49 1.49 0 01-.5.351c-.207.095-.466.142-.779.142-.419 0-.798-.098-1.14-.294a2.114 2.114 0 01-.81-.888c-.198-.396-.297-.89-.297-1.485 0-.598.099-1.104.298-1.516.201-.414.472-.728.813-.94a2.09 2.09 0 011.14-.324c.32 0 .582.054.788.163.209.107.374.236.498.387.123.15.216.29.28.423h.071v-.902h1.268v5.543c0 .467-.111.853-.334 1.158a2.003 2.003 0 01-.913.685 3.573 3.573 0 01-1.314.228zm.011-3.246c.272 0 .504-.067.696-.199.192-.133.337-.323.437-.572.1-.248.15-.547.15-.895a2.5 2.5 0 00-.15-.902 1.287 1.287 0 00-.433-.6 1.12 1.12 0 00-.7-.216c-.286 0-.525.074-.717.223-.192.15-.336.354-.433.615a2.488 2.488 0 00-.146.88c0 .334.049.627.146.877.099.25.245.443.436.583.194.137.432.206.714.206z" fill="#3760FF"/></g><defs><clipPath id="clip0_1080_2624"><rect x=".5" y=".636" width="75" height="19" rx="2.898" fill="#fff"/></clipPath></defs></svg>