<svg width="139" height="17" viewBox="0 0 139 17" fill="none" xmlns="http://www.w3.org/2000/svg"><path d="M37.326 6h-.88a1.831 1.831 0 00-.743-1.15 1.99 1.99 0 00-.607-.299 2.426 2.426 0 00-.696-.1c-.44 0-.84.112-1.197.335-.355.222-.638.55-.849.983-.208.433-.312.965-.312 1.595s.104 1.16.312 1.594c.21.433.494.761.849.984.357.222.756.334 1.197.334.241 0 .473-.034.696-.1.222-.066.425-.164.607-.295a1.871 1.871 0 00.742-1.154h.88a2.934 2.934 0 01-.361.998 2.727 2.727 0 01-1.531 1.215c-.322.106-.666.16-1.033.16-.62 0-1.172-.152-1.655-.455-.483-.303-.863-.734-1.14-1.293-.277-.558-.416-1.221-.416-1.988 0-.767.139-1.43.416-1.989.277-.559.657-.99 1.14-1.293.483-.303 1.034-.454 1.655-.454.367 0 .711.053 1.033.16.324.106.617.262.877.468.26.204.478.453.654.746.175.291.296.624.362.998zm2.914 5.128c-.345 0-.659-.065-.94-.196a1.614 1.614 0 01-.672-.571c-.166-.251-.248-.554-.248-.91 0-.312.061-.565.184-.76.123-.196.288-.35.494-.46.206-.112.433-.195.682-.25.25-.056.503-.101.756-.134.331-.043.6-.075.806-.096.209-.024.36-.063.455-.117.097-.055.145-.15.145-.285v-.028c0-.35-.096-.623-.287-.817-.19-.194-.477-.29-.863-.29-.4 0-.714.087-.941.262a1.553 1.553 0 00-.48.56l-.795-.283a1.91 1.91 0 01.568-.774c.24-.187.5-.318.781-.39.284-.077.564-.115.838-.115.175 0 .377.022.604.064.23.04.451.125.664.252.215.128.394.321.536.58.142.257.213.603.213 1.036V11h-.838v-.739h-.042a1.475 1.475 0 01-.284.38c-.133.135-.31.25-.53.345-.22.095-.488.142-.806.142zm.128-.753c.332 0 .611-.065.838-.195a1.33 1.33 0 00.696-1.154v-.767c-.035.042-.113.081-.234.117a3.946 3.946 0 01-.412.088 18.757 18.757 0 01-.803.107 3.202 3.202 0 00-.61.139 1.053 1.053 0 00-.455.28c-.113.123-.17.291-.17.504 0 .292.107.512.323.66.218.148.493.221.827.221zm3.902 2.67v-7.5h.81v.867h.1a7.51 7.51 0 01.255-.362c.111-.15.27-.282.476-.398.208-.118.49-.178.845-.178.46 0 .864.115 1.214.345.35.23.624.555.82.976.197.422.295.919.295 1.492 0 .578-.098 1.078-.294 1.502a2.326 2.326 0 01-.817.98c-.348.23-.75.345-1.204.345-.35 0-.63-.058-.842-.174a1.559 1.559 0 01-.486-.402 5.407 5.407 0 01-.263-.376h-.07v2.883h-.839zm.824-4.772c0 .412.06.775.181 1.09.12.312.297.557.53.735.231.175.515.263.851.263.35 0 .643-.093.877-.277.237-.187.415-.438.533-.753.12-.317.181-.67.181-1.058 0-.384-.059-.73-.177-1.037a1.602 1.602 0 00-.53-.735c-.234-.183-.529-.274-.884-.274-.34 0-.627.087-.859.26-.232.17-.407.41-.526.717a2.95 2.95 0 00-.177 1.069zM50.364 11V5.545h.838V11h-.838zm.426-6.364a.596.596 0 01-.423-.167.536.536 0 01-.174-.4c0-.157.058-.29.174-.402a.596.596 0 01.423-.167c.163 0 .303.056.419.167a.531.531 0 01.177.401c0 .156-.059.29-.177.401a.583.583 0 01-.42.167zm4.319.91v.71h-2.827v-.71h2.827zm-2.003-1.307h.838v5.199c0 .236.034.414.103.532a.533.533 0 00.27.234c.111.038.228.057.352.057.092 0 .168-.004.227-.014l.142-.028.17.753a1.705 1.705 0 01-.237.064 1.75 1.75 0 01-.388.035c-.236 0-.468-.05-.696-.153a1.383 1.383 0 01-.56-.465c-.148-.208-.22-.471-.22-.788V4.239zm4.869 6.889c-.346 0-.66-.065-.941-.196a1.615 1.615 0 01-.672-.571c-.165-.251-.248-.554-.248-.91 0-.312.062-.565.185-.76.123-.196.287-.35.493-.46.206-.112.433-.195.682-.25.251-.056.503-.101.756-.134.332-.043.6-.075.806-.096.209-.024.36-.063.455-.117.097-.055.146-.15.146-.285v-.028c0-.35-.096-.623-.288-.817-.19-.194-.477-.29-.863-.29-.4 0-.714.087-.94.262a1.553 1.553 0 00-.48.56l-.796-.283a1.91 1.91 0 01.568-.774c.24-.187.5-.318.782-.39.284-.077.563-.115.838-.115.175 0 .376.022.603.064.23.04.451.125.664.252.216.128.395.321.537.58.142.257.213.603.213 1.036V11h-.838v-.739h-.043a1.475 1.475 0 01-.284.38 1.64 1.64 0 01-.53.345c-.22.095-.488.142-.805.142zm.128-.753c.331 0 .61-.065.838-.195a1.33 1.33 0 00.696-1.154v-.767c-.036.042-.114.081-.235.117a3.958 3.958 0 01-.412.088 18.757 18.757 0 01-.802.107 3.202 3.202 0 00-.611.139 1.053 1.053 0 00-.454.28c-.114.123-.171.291-.171.504 0 .292.108.512.323.66.218.148.494.221.828.221zm4.74-6.648V11h-.839V3.727h.839zM67.19 11V5.545h.838V11h-.838zm.426-6.364a.596.596 0 01-.422-.167.536.536 0 01-.175-.4c0-.157.058-.29.174-.402a.596.596 0 01.423-.167c.163 0 .303.056.42.167a.531.531 0 01.177.401c0 .156-.06.29-.178.401a.584.584 0 01-.419.167zm5.81 2.131l-.752.213a1.4 1.4 0 00-.21-.366c-.09-.12-.213-.22-.369-.298a1.341 1.341 0 00-.6-.117c-.334 0-.612.077-.835.23-.22.152-.33.345-.33.58 0 .208.076.372.227.493.152.12.389.221.71.302l.81.199c.488.118.851.3 1.09.543.24.242.36.553.36.934 0 .313-.09.592-.27.838a1.79 1.79 0 01-.747.583c-.32.142-.69.213-1.115.213-.556 0-1.016-.121-1.381-.363-.365-.241-.595-.594-.692-1.058l.795-.199c.076.294.219.514.43.66.213.148.49.221.834.221.39 0 .7-.083.93-.249.233-.168.349-.369.349-.603a.634.634 0 00-.2-.476c-.132-.13-.335-.227-.61-.291l-.91-.213c-.499-.119-.866-.302-1.1-.55-.232-.252-.348-.565-.348-.942 0-.308.086-.58.26-.817.174-.236.412-.422.713-.557a2.506 2.506 0 011.03-.203c.54 0 .963.119 1.271.356.31.236.53.549.66.937zm5.78 4.36c-.346 0-.66-.064-.942-.195a1.614 1.614 0 01-.671-.571c-.166-.251-.249-.554-.249-.91 0-.312.062-.565.185-.76.123-.196.288-.35.494-.46.206-.112.433-.195.681-.25.252-.056.504-.101.757-.134.331-.043.6-.075.806-.096.208-.024.36-.063.455-.117.097-.055.145-.15.145-.285v-.028c0-.35-.096-.623-.288-.817-.189-.194-.476-.29-.862-.29-.4 0-.714.087-.942.262a1.555 1.555 0 00-.479.56l-.795-.283c.142-.332.331-.59.568-.774.239-.187.5-.318.781-.39.284-.077.564-.115.838-.115.175 0 .377.022.604.064.23.04.45.125.664.252.215.128.394.321.536.58.142.257.213.603.213 1.036V11h-.838v-.739h-.043a1.475 1.475 0 01-.284.38c-.132.135-.309.25-.529.345-.22.095-.489.142-.806.142zm.127-.752c.332 0 .61-.065.838-.195a1.33 1.33 0 00.696-1.154v-.767c-.035.042-.114.081-.234.117a3.954 3.954 0 01-.412.088 18.75 18.75 0 01-.803.107 3.202 3.202 0 00-.61.139 1.054 1.054 0 00-.455.28c-.114.123-.17.291-.17.504 0 .292.107.512.323.66.217.148.493.221.827.221zm6.274-4.83v.71H82.78v-.71h2.827zM83.604 4.24h.838v5.199c0 .236.035.414.103.532a.533.533 0 00.27.234c.111.038.229.057.352.057.092 0 .168-.004.227-.014l.142-.028.17.753a1.71 1.71 0 01-.237.064 1.75 1.75 0 01-.387.035c-.237 0-.47-.05-.697-.153a1.382 1.382 0 01-.56-.465c-.147-.208-.22-.471-.22-.788V4.239zM89.68 11V5.545h.81v.824h.057c.1-.27.279-.489.54-.657a1.59 1.59 0 01.88-.252 9.267 9.267 0 01.44.014v.853a2.505 2.505 0 00-.195-.032 1.921 1.921 0 00-.316-.025c-.265 0-.502.056-.71.167a1.225 1.225 0 00-.668 1.112V11h-.838zm3.72 0V5.545h.839V11h-.838zm.427-6.364a.596.596 0 01-.423-.167.536.536 0 01-.174-.4c0-.157.058-.29.174-.402a.596.596 0 01.423-.167c.163 0 .303.056.42.167a.531.531 0 01.177.401c0 .156-.06.29-.178.401a.584.584 0 01-.419.167zm5.81 2.131l-.752.213a1.398 1.398 0 00-.21-.366c-.09-.12-.213-.22-.37-.298a1.341 1.341 0 00-.6-.117c-.333 0-.611.077-.834.23-.22.152-.33.345-.33.58 0 .208.076.372.227.493.152.12.388.221.71.302l.81.199c.488.118.851.3 1.09.543.24.242.359.553.359.934 0 .313-.09.592-.27.838a1.79 1.79 0 01-.746.583c-.32.142-.69.213-1.115.213-.556 0-1.016-.121-1.381-.363-.365-.241-.596-.594-.692-1.058l.795-.199c.076.294.219.514.43.66.213.148.49.221.834.221.39 0 .7-.083.93-.249.232-.168.349-.369.349-.603a.635.635 0 00-.2-.476c-.132-.13-.336-.227-.61-.291l-.91-.213c-.499-.119-.866-.302-1.1-.55-.232-.252-.348-.565-.348-.942 0-.308.086-.58.26-.817.174-.236.412-.422.713-.557a2.506 2.506 0 011.03-.203c.54 0 .963.119 1.271.356.31.236.53.549.66.937zm2.143 2.244l-.014-1.037h.17l2.386-2.429h1.037l-2.542 2.571h-.071l-.966.895zM100.999 11V3.727h.838V11h-.838zm3.465 0l-2.13-2.699.596-.582 2.6 3.281h-1.066zm2.585.057a.615.615 0 01-.451-.188.613.613 0 01-.188-.451c0-.176.062-.326.188-.451a.615.615 0 01.451-.189c.175 0 .325.063.451.189a.617.617 0 01.188.45.666.666 0 01-.32.554.606.606 0 01-.319.086z" fill="#fff"/></svg>