<svg width="124" height="15" viewBox="0 0 124 15" fill="none" xmlns="http://www.w3.org/2000/svg"><path d="M123.181.002h-10.146a.303.303 0 00-.217.108.324.324 0 00-.075.235v.381a.316.316 0 00.309.317h4.544v13.606c0 .085.033.167.091.227.059.06.139.094.222.094h.424a.308.308 0 00.222-.094.328.328 0 00.092-.227V1.02h4.543a.302.302 0 00.219-.093.337.337 0 00.067-.102.333.333 0 00.023-.121v-.36a.321.321 0 00-.318-.343zM85.656.002c.287.001.57.07.828.2.257.131.482.32.656.555L97.735 15h-.314c-.288 0-.572-.067-.83-.198a1.871 1.871 0 01-.657-.556L85.338.002h.318z" fill="#fff"/><path d="M97.485.011a1.83 1.83 0 00-.832.187c-.26.127-.487.314-.664.546l-10.748 14.1h.314c.287.004.572-.06.831-.187.26-.127.487-.314.665-.546L97.81.011h-.326zM100.524.344c0-.084.032-.165.09-.225a.311.311 0 01.219-.095h.75v14.94h-.75a.31.31 0 01-.219-.095.324.324 0 01-.09-.225V.344zM101.583 8.026V6.942h6.222c.083 0 .163.034.222.094s.092.142.092.227v.433a.324.324 0 01-.092.227.311.311 0 01-.222.094l-6.222.009zM101.583 1.086V.002h4.48v1.084h-4.48zM101.583 14.965v-1.083h4.73c.082 0 .161.033.219.092a.32.32 0 01.091.224v.433a.325.325 0 01-.091.226.309.309 0 01-.219.095l-4.73.013z" fill="#fff"/><path d="M106.063.002a3.888 3.888 0 012.692 1.22 4.063 4.063 0 011.104 2.792 4.063 4.063 0 01-1.104 2.791 3.888 3.888 0 01-2.692 1.22V6.947a2.838 2.838 0 001.957-.897 2.968 2.968 0 00.802-2.035c0-.759-.287-1.488-.802-2.035a2.838 2.838 0 00-1.957-.897V.002z" fill="#fff"/><path d="M106.063 6.942a3.888 3.888 0 012.692 1.22 4.063 4.063 0 011.104 2.792 4.063 4.063 0 01-1.104 2.79 3.888 3.888 0 01-2.692 1.221v-1.08a2.838 2.838 0 001.957-.897 2.967 2.967 0 00.802-2.034c0-.76-.287-1.488-.802-2.035a2.838 2.838 0 00-1.957-.898V6.942zM67.225 5.607a.325.325 0 01-.093.224.31.31 0 01-.22.092H64.11a.306.306 0 01-.219-.093.32.32 0 01-.09-.223V.344c0-.084.032-.165.09-.225a.31.31 0 01.219-.095h2.801a.31.31 0 01.222.094c.059.06.092.141.092.226v5.263zM67.225 14.649a.324.324 0 01-.092.226.31.31 0 01-.222.094H64.11a.31.31 0 01-.219-.095.325.325 0 01-.09-.225V9.36a.32.32 0 01.09-.223.306.306 0 01.219-.093h2.801a.31.31 0 01.22.092c.06.06.093.14.094.224v5.289z" fill="#fff"/><path d="M65.42 2.945a.31.31 0 01-.222-.094.324.324 0 01-.092-.227V.344c0-.085.033-.166.092-.226a.31.31 0 01.222-.094h8.713a.31.31 0 01.22.095c.057.06.09.141.09.225v2.29a.325.325 0 01-.09.224.31.31 0 01-.22.096l-8.713-.009zM65.42 14.965a.31.31 0 01-.222-.094.324.324 0 01-.092-.227v-2.293a.324.324 0 01.094-.224.31.31 0 01.22-.092h8.713c.082 0 .161.033.22.093.057.06.09.14.09.223v2.298a.324.324 0 01-.09.225.31.31 0 01-.22.095l-8.713-.004zM67.225 6.243c0-.084.032-.165.09-.225a.31.31 0 01.22-.095h2.428a.31.31 0 01.219.095c.058.06.09.141.09.225v2.48a.325.325 0 01-.09.225.31.31 0 01-.22.096h-2.428a.31.31 0 01-.219-.096.324.324 0 01-.09-.225v-2.48zM47.802 14.583a.32.32 0 01-.09.224.306.306 0 01-.22.093h-2.8a.306.306 0 01-.22-.093.32.32 0 01-.09-.224V.344c0-.084.032-.165.09-.225a.31.31 0 01.22-.095h2.783a.303.303 0 01.22.094.317.317 0 01.09.226l.017 14.24zM59.257 14.583a.324.324 0 01-.093.224.31.31 0 01-.22.093h-2.802a.306.306 0 01-.219-.093.32.32 0 01-.09-.224V.344c0-.084.032-.165.09-.225a.31.31 0 01.219-.095h2.801a.307.307 0 01.222.094.32.32 0 01.092.226v14.24z" fill="#fff"/><path d="M52.044 13.96a.304.304 0 01-.551 0l-1.505-3.065a.322.322 0 010-.3L55.642.194a.322.322 0 01.271-.165h1.06a.31.31 0 01.216.091l1.394 1.374a.323.323 0 01.055.386l-6.594 12.08z" fill="#fff"/><path d="M51.497 13.93a.317.317 0 00.276.167.308.308 0 00.275-.167l1.45-3.035a.318.318 0 000-.29L47.84.202a.317.317 0 00-.272-.165H46.51a.314.314 0 00-.216.091l-1.39 1.374a.323.323 0 00-.055.386l6.65 12.042zM39.846 5.607a.324.324 0 01-.093.224.31.31 0 01-.22.092H36.73a.306.306 0 01-.219-.093.32.32 0 01-.09-.223V.344c0-.084.032-.165.09-.225a.31.31 0 01.219-.095h2.801a.31.31 0 01.222.094c.059.06.092.141.092.226v5.263zM39.846 14.583a.324.324 0 01-.093.224.31.31 0 01-.22.093H36.73a.306.306 0 01-.219-.093.32.32 0 01-.09-.224V9.382a.32.32 0 01.09-.224.306.306 0 01.219-.093h2.801a.31.31 0 01.22.093c.06.059.093.14.094.224v5.201zM23.28 14.648a.325.325 0 01-.09.226.31.31 0 01-.22.095h-2.8a.31.31 0 01-.222-.094.325.325 0 01-.092-.227V.344c0-.085.033-.166.092-.226a.31.31 0 01.221-.094h2.802a.31.31 0 01.219.095c.058.06.09.141.09.225v14.304z" fill="#fff"/><path d="M22.47 2.946V.002h3.425v2.944h-3.424zM22.47 12.29V9.36h3.425v2.93h-3.424z" fill="#fff"/><path d="M25.861 12.29c.803.022 1.601-.12 2.349-.42a5.997 5.997 0 002.004-1.32 6.153 6.153 0 001.344-2.014 6.267 6.267 0 000-4.78 6.153 6.153 0 00-1.344-2.013A5.996 5.996 0 0028.21.423a5.89 5.89 0 00-2.349-.42v2.942c.423-.016.845.056 1.24.21.396.155.757.39 1.061.69.305.3.547.66.713 1.059a3.283 3.283 0 010 2.52 3.223 3.223 0 01-.713 1.058c-.304.3-.665.535-1.06.69a3.086 3.086 0 01-1.24.21v2.909z" fill="#fff"/><path d="M23.775 9.36h1.806l1.152.434 4.505 4.608a.318.318 0 01.069.347.315.315 0 01-.115.142.304.304 0 01-.174.053h-2.492c-.243 0-.484-.048-.708-.142a1.845 1.845 0 01-.602-.409l-1.55-1.565a1.843 1.843 0 00-1.314-.55h-.577V9.36zM.5 6.243c0-.084.032-.165.09-.225a.31.31 0 01.22-.095h2.428a.31.31 0 01.219.095c.058.06.09.141.09.225v2.48a.324.324 0 01-.09.225.31.31 0 01-.22.096H.81a.31.31 0 01-.219-.096.325.325 0 01-.09-.225v-2.48zM6.972 9.044h-3.11a.31.31 0 00-.221.092.324.324 0 00-.094.224v5.289c0 .085.034.166.092.226a.31.31 0 00.222.094h2.801a.31.31 0 00.22-.095.325.325 0 00.09-.225V12.32a.324.324 0 01.093-.224.31.31 0 01.22-.092H9.43a5.796 5.796 0 002.62-.695 5.942 5.942 0 002.042-1.82.282.282 0 00-.09-.397.267.267 0 00-.143-.036l-6.887-.013zM3.547.344c0-.085.034-.166.092-.226a.31.31 0 01.222-.094h6.692c2.738 0 4.505 3.086 4.738 5.526a.309.309 0 01-.079.233.296.296 0 01-.222.097H12.19a.332.332 0 01-.22-.105.346.346 0 01-.094-.23c-.106-.74-.504-2.6-2.195-2.6H7.286a.31.31 0 00-.22.093.324.324 0 00-.094.224V5.62a.32.32 0 01-.09.223.306.306 0 01-.22.093h-2.8a.31.31 0 01-.221-.092.324.324 0 01-.094-.224V.344z" fill="#fff"/></svg>