<svg width="60" height="7" viewBox="0 0 60 7" fill="none" xmlns="http://www.w3.org/2000/svg"><path d="M59.35 0h-4.866a.149.149 0 00-.15.149v.178c0 .082.067.148.15.148h2.18v6.36c0 .082.066.148.149.148h.209c.082 0 .149-.066.149-.148V.475h2.18c.082 0 .149-.066.149-.148V.149A.149.149 0 0059.35 0zM41.35 0c.28 0 .543.13.713.352L47.135 7h-.15a.897.897 0 01-.713-.352L41.197 0h.152z" fill="#fff"/><path d="M47.028.003a.897.897 0 00-.718.343l-5.159 6.582.15.002a.897.897 0 00.718-.343L47.18.005l-.153-.002zM48.48.149c0-.082.067-.149.15-.149h.358v6.983h-.358a.149.149 0 01-.15-.148V.149zM48.988 3.744V3.24h2.986c.082 0 .149.067.149.149v.208a.149.149 0 01-.15.148h-2.985zM48.988.505V0h2.15v.505h-2.15z" fill="#fff"/><path d="M48.988 6.983v-.505h2.269c.083 0 .15.067.15.149v.208a.149.149 0 01-.15.148h-2.27zM51.138 0c.498 0 .977.197 1.33.548a1.868 1.868 0 010 2.648 1.885 1.885 0 01-1.33.548v-.503c.364 0 .714-.145.972-.401a1.365 1.365 0 000-1.936 1.378 1.378 0 00-.972-.4V0z" fill="#fff"/><path d="M51.138 3.239c.498 0 .977.197 1.33.548a1.868 1.868 0 010 2.648 1.885 1.885 0 01-1.33.548V6.48c.364 0 .714-.145.972-.401a1.365 1.365 0 000-1.936 1.378 1.378 0 00-.972-.4v-.504zM32.508 2.615a.149.149 0 01-.149.149h-1.344a.149.149 0 01-.149-.149V.149c0-.082.067-.149.15-.149h1.343c.083 0 .15.067.15.149v2.466zM32.508 6.835a.149.149 0 01-.149.148h-1.344a.149.149 0 01-.149-.148V4.368c0-.082.067-.148.15-.148h1.343c.083 0 .15.066.15.148v2.467z" fill="#fff"/><path d="M31.642 1.367a.149.149 0 01-.149-.149V.148c0-.081.067-.148.15-.148h4.18c.082 0 .149.067.149.149v1.07a.149.149 0 01-.15.148h-4.18zM31.642 6.983a.149.149 0 01-.149-.148v-1.07c0-.082.067-.149.15-.149h4.18c.082 0 .149.067.149.149v1.07a.149.149 0 01-.15.148h-4.18zM32.508 2.912c0-.082.067-.148.15-.148h1.164c.083 0 .15.066.15.148v1.16a.149.149 0 01-.15.148h-1.164a.149.149 0 01-.15-.149V2.912zM23.195 6.805a.149.149 0 01-.15.149h-1.343a.149.149 0 01-.15-.149V.149c0-.082.067-.149.15-.149h1.343c.083 0 .15.067.15.149v6.656zM28.689 6.805a.149.149 0 01-.15.149h-1.343a.149.149 0 01-.15-.149V.149c0-.082.067-.149.15-.149h1.343c.083 0 .15.067.15.149v6.656z" fill="#fff"/><path d="M25.228 6.515a.15.15 0 01-.264-.006l-.721-1.432a.148.148 0 01.003-.138L26.959.076a.15.15 0 01.13-.076h.51a.15.15 0 01.103.042l.667.641c.049.047.06.12.027.18l-3.168 5.652z" fill="#fff"/><path d="M24.966 6.5a.15.15 0 00.264-.008l.696-1.415a.148.148 0 00-.004-.138L23.209.076A.15.15 0 0023.078 0h-.509a.15.15 0 00-.103.042l-.667.641a.148.148 0 00-.026.18l3.193 5.636zM19.37 2.615a.149.149 0 01-.148.148h-1.344a.149.149 0 01-.15-.148V.148c0-.082.067-.148.15-.148h1.344c.082 0 .149.066.149.148v2.467zM19.37 6.806a.149.149 0 01-.148.148h-1.344a.149.149 0 01-.15-.148V4.369c0-.082.067-.148.15-.148h1.344c.082 0 .149.066.149.148v2.437zM11.429 6.835a.149.149 0 01-.15.148H9.936a.149.149 0 01-.15-.148V.149c0-.082.067-.149.15-.149h1.343c.083 0 .15.067.15.149v6.686z" fill="#fff"/><path d="M11.04 1.367V0h1.643v1.367H11.04zM11.04 5.735V4.368h1.643v1.367H11.04z" fill="#fff"/><path d="M12.668 5.735c.764 0 1.497-.302 2.037-.84a2.86 2.86 0 000-4.055A2.888 2.888 0 0012.668 0v1.365c.4 0 .784.159 1.067.44a1.499 1.499 0 010 2.125c-.283.282-.667.44-1.067.44v1.365z" fill="#fff"/><path d="M11.668 4.368h.865l.553.208 2.161 2.15a.149.149 0 01-.105.254h-1.196a.898.898 0 01-.63-.257l-.743-.73a.898.898 0 00-.63-.258h-.275V4.368zM.5 2.911c0-.082.067-.148.15-.148h1.164c.082 0 .15.066.15.148v1.16a.149.149 0 01-.15.148H.649A.149.149 0 01.5 4.07V2.911zM3.605 4.22H2.112a.149.149 0 00-.149.149v2.466c0 .082.067.149.15.149h1.343c.083 0 .15-.067.15-.149V5.75c0-.082.066-.148.149-.148h1.03C6 5.602 6.74 4.816 7.032 4.43c.068-.091 0-.21-.113-.21H3.605zM1.963.149c0-.082.067-.149.15-.149h3.209c1.314 0 2.163 1.44 2.274 2.58a.142.142 0 01-.145.154H6.11a.161.161 0 01-.158-.143c-.044-.35-.235-1.224-1.047-1.224h-1.15a.149.149 0 00-.149.149v1.099a.149.149 0 01-.149.149H2.112a.149.149 0 01-.149-.149V.149z" fill="#fff"/></svg>