<svg width="124" height="16" viewBox="0 0 124 16" fill="none" xmlns="http://www.w3.org/2000/svg"><path d="M123.127.592h-10.146a.308.308 0 00-.278.217.331.331 0 00-.015.126v.38a.32.32 0 00.091.225c.058.059.137.092.219.092h4.543v13.606c0 .085.033.167.092.227s.138.094.221.094h.424a.308.308 0 00.222-.094.326.326 0 00.092-.227V1.611h4.543a.307.307 0 00.286-.196.314.314 0 00.024-.12v-.36a.326.326 0 00-.192-.317.307.307 0 00-.126-.026zM85.602.592c.287 0 .57.07.827.2.258.13.482.32.656.554L97.68 15.59h-.313c-.288.001-.573-.067-.831-.197a1.87 1.87 0 01-.657-.557L85.284.592h.318z" fill="#fff"/><path d="M97.43.6a1.83 1.83 0 00-.832.188c-.26.127-.487.313-.664.545l-10.748 14.1h.314c.288.004.572-.06.832-.187s.487-.313.664-.545l10.76-14.1h-.326zM100.469.934c0-.084.032-.165.09-.225a.311.311 0 01.219-.096h.751v14.941h-.751a.31.31 0 01-.219-.095.324.324 0 01-.09-.225V.934zM101.529 8.615V7.532h6.221a.31.31 0 01.222.094c.059.06.092.141.092.226v.434a.324.324 0 01-.092.227.31.31 0 01-.222.094l-6.221.008zM101.529 1.676V.592h4.479v1.084h-4.479zM101.529 15.555V14.47h4.73c.082 0 .16.033.218.093a.32.32 0 01.091.223v.434a.328.328 0 01-.09.225.31.31 0 01-.219.096l-4.73.013z" fill="#fff"/><path d="M106.009.592a3.884 3.884 0 012.691 1.22 4.063 4.063 0 011.104 2.792 4.063 4.063 0 01-1.104 2.79 3.884 3.884 0 01-2.691 1.221v-1.08a2.842 2.842 0 001.957-.897 2.972 2.972 0 00.802-2.034c0-.76-.288-1.488-.802-2.035a2.842 2.842 0 00-1.957-.898V.592z" fill="#fff"/><path d="M106.009 7.532a3.884 3.884 0 012.691 1.22 4.063 4.063 0 011.104 2.791 4.063 4.063 0 01-1.104 2.791 3.884 3.884 0 01-2.691 1.22v-1.079a2.842 2.842 0 001.957-.897 2.972 2.972 0 00.802-2.035c0-.758-.288-1.488-.802-2.035a2.842 2.842 0 00-1.957-.897V7.53zM67.17 6.196a.324.324 0 01-.093.224.31.31 0 01-.22.093h-2.802a.306.306 0 01-.218-.093.32.32 0 01-.091-.224V.934c0-.084.032-.165.09-.225a.31.31 0 01.22-.096h2.8a.31.31 0 01.223.094c.058.06.091.142.091.227v5.262zM67.17 15.238a.324.324 0 01-.091.227.31.31 0 01-.222.094h-2.802a.31.31 0 01-.219-.095.325.325 0 01-.09-.226V9.95a.32.32 0 01.09-.224.306.306 0 01.22-.092h2.8a.31.31 0 01.221.092c.059.06.092.14.093.224v5.288z" fill="#fff"/><path d="M65.365 3.535a.31.31 0 01-.222-.094.325.325 0 01-.091-.227V.934c0-.085.033-.167.091-.227a.31.31 0 01.222-.094h8.714a.31.31 0 01.219.096c.058.06.09.14.09.225v2.289a.325.325 0 01-.09.225.31.31 0 01-.22.095l-8.713-.008zM65.365 15.555a.31.31 0 01-.222-.094.324.324 0 01-.091-.227v-2.293a.325.325 0 01.093-.224.31.31 0 01.22-.092h8.714c.082 0 .16.033.219.092.058.06.09.14.09.224v2.297a.324.324 0 01-.09.226.31.31 0 01-.22.095l-8.713-.004zM67.17 6.833c0-.084.033-.165.09-.225a.31.31 0 01.22-.096h2.428a.31.31 0 01.219.096c.058.06.09.14.09.225v2.48a.325.325 0 01-.09.225.31.31 0 01-.219.095H67.48a.31.31 0 01-.22-.095.325.325 0 01-.09-.226V6.833zM47.747 15.173a.32.32 0 01-.09.224.306.306 0 01-.22.092h-2.8a.306.306 0 01-.22-.092.32.32 0 01-.09-.224V.934c0-.084.032-.165.09-.225a.31.31 0 01.22-.096h2.784a.303.303 0 01.22.094.317.317 0 01.09.227l.016 14.239zM59.202 15.173a.324.324 0 01-.093.224.31.31 0 01-.22.092h-2.802a.306.306 0 01-.219-.092.32.32 0 01-.09-.224V.934c0-.084.032-.165.09-.225a.31.31 0 01.22-.096h2.8a.307.307 0 01.222.094.322.322 0 01.092.227v14.239z" fill="#fff"/><path d="M51.99 14.549a.313.313 0 01-.276.172.304.304 0 01-.276-.172l-1.504-3.065a.322.322 0 010-.299L55.587.782a.32.32 0 01.272-.164h1.06a.31.31 0 01.215.09l1.395 1.375a.323.323 0 01.055.385l-6.595 12.08z" fill="#fff"/><path d="M51.443 14.52a.317.317 0 00.275.167.308.308 0 00.275-.168l1.45-3.034a.318.318 0 000-.29L47.785.791a.317.317 0 00-.271-.165h-1.06a.314.314 0 00-.216.091l-1.39 1.374a.323.323 0 00-.055.386l6.65 12.041zM39.791 6.196a.324.324 0 01-.093.224.31.31 0 01-.22.093h-2.802a.306.306 0 01-.218-.093.32.32 0 01-.091-.224V.934c0-.084.032-.165.09-.225a.31.31 0 01.22-.096h2.8a.31.31 0 01.223.094c.058.06.091.142.091.227v5.262zM39.791 15.173a.324.324 0 01-.093.224.31.31 0 01-.22.092h-2.802a.306.306 0 01-.218-.093.32.32 0 01-.091-.223V9.97a.32.32 0 01.09-.223.306.306 0 01.22-.093h2.8a.31.31 0 01.221.092c.059.06.092.14.093.224v5.202zM23.226 15.238a.324.324 0 01-.09.225.31.31 0 01-.22.096h-2.801a.31.31 0 01-.222-.094.325.325 0 01-.092-.227V.934c0-.085.033-.167.092-.227a.31.31 0 01.222-.094h2.801a.31.31 0 01.22.096c.057.06.09.14.09.225v14.304z" fill="#fff"/><path d="M22.416 3.535V.592h3.424v2.943h-3.424zM22.416 12.88V9.95h3.424v2.93h-3.424z" fill="#fff"/><path d="M25.807 12.88c.802.022 1.6-.12 2.348-.42a5.997 5.997 0 002.004-1.32 6.153 6.153 0 001.344-2.014 6.267 6.267 0 000-4.78 6.153 6.153 0 00-1.344-2.014 5.996 5.996 0 00-2.004-1.32 5.89 5.89 0 00-2.348-.42v2.943c.423-.016.845.056 1.24.21.395.155.756.39 1.06.69.305.3.548.66.713 1.059a3.283 3.283 0 010 2.519 3.223 3.223 0 01-.712 1.059c-.305.3-.666.535-1.061.69a3.086 3.086 0 01-1.24.21v2.908z" fill="#fff"/><path d="M23.72 9.95h1.806l1.153.434 4.505 4.607a.318.318 0 01.068.347.315.315 0 01-.115.143.304.304 0 01-.174.052h-2.492c-.243.001-.483-.047-.708-.142a1.845 1.845 0 01-.601-.408l-1.551-1.565a1.844 1.844 0 00-1.314-.55h-.576V9.95zM.445 6.833c0-.084.033-.165.09-.225a.31.31 0 01.22-.096h2.428a.31.31 0 01.22.096c.057.06.09.14.09.225v2.48a.325.325 0 01-.09.225.31.31 0 01-.22.095H.755a.31.31 0 01-.22-.095.325.325 0 01-.09-.226V6.833zM6.917 9.634h-3.11a.31.31 0 00-.22.092.324.324 0 00-.094.224v5.288c0 .085.033.167.092.227a.31.31 0 00.221.094h2.802a.31.31 0 00.219-.095.325.325 0 00.09-.226v-2.327a.324.324 0 01.094-.224.31.31 0 01.22-.093h2.144a5.796 5.796 0 002.621-.695 5.942 5.942 0 002.041-1.819.282.282 0 00-.09-.397.267.267 0 00-.143-.036l-6.887-.013zM3.493.934c0-.085.033-.167.092-.227a.31.31 0 01.221-.094h6.692c2.738 0 4.506 3.086 4.739 5.527a.31.31 0 01-.08.233.296.296 0 01-.221.096h-2.802a.332.332 0 01-.22-.104.347.347 0 01-.093-.23c-.106-.74-.505-2.6-2.196-2.6H7.231a.31.31 0 00-.22.092.324.324 0 00-.094.224V6.21a.32.32 0 01-.09.224.306.306 0 01-.22.093h-2.8a.31.31 0 01-.22-.093.324.324 0 01-.094-.224V.934z" fill="#fff"/></svg>