<svg width="139" height="18" viewBox="0 0 139 18" fill="none" xmlns="http://www.w3.org/2000/svg"><path d="M7.335 6.922h-.88a1.83 1.83 0 00-.743-1.15 1.99 1.99 0 00-.607-.299 2.425 2.425 0 00-.696-.099c-.44 0-.84.111-1.197.334-.355.222-.638.55-.848.984-.209.433-.313.964-.313 1.594 0 .63.104 1.161.313 1.594.21.434.493.762.848.984.358.223.757.334 1.197.334.241 0 .473-.033.696-.1.223-.066.425-.164.607-.294a1.871 1.871 0 00.742-1.154h.881a2.934 2.934 0 01-.362.998 2.727 2.727 0 01-1.53 1.214 3.27 3.27 0 01-1.034.16c-.62 0-1.172-.152-1.655-.455-.483-.303-.863-.734-1.14-1.292-.277-.56-.415-1.222-.415-1.989 0-.767.138-1.43.415-1.989.277-.558.657-.99 1.14-1.292.483-.303 1.035-.455 1.655-.455.367 0 .711.053 1.033.16.325.107.617.263.877.469.26.203.479.452.654.745.175.292.296.624.362.998zm2.915 5.128c-.346 0-.66-.065-.941-.195a1.616 1.616 0 01-.671-.572c-.166-.25-.25-.554-.25-.909 0-.312.062-.566.186-.76.123-.196.287-.35.493-.462.206-.11.433-.194.682-.248.251-.057.503-.102.756-.135.332-.043.6-.075.806-.096.209-.024.36-.063.455-.117.097-.055.146-.15.146-.284v-.029c0-.35-.096-.622-.288-.816-.19-.194-.477-.292-.863-.292-.4 0-.714.088-.941.263a1.553 1.553 0 00-.48.561l-.795-.284a1.91 1.91 0 01.568-.774c.24-.187.5-.317.782-.39.284-.076.563-.114.838-.114.175 0 .376.021.603.064.23.04.451.124.664.252.216.128.395.32.537.579.142.258.213.603.213 1.037v3.593h-.838v-.738h-.043a1.475 1.475 0 01-.284.38 1.64 1.64 0 01-.53.344c-.22.095-.488.142-.805.142zm.128-.753c.331 0 .61-.065.838-.195a1.33 1.33 0 00.696-1.154V9.18c-.036.043-.114.082-.235.117a3.952 3.952 0 01-.412.089 18.7 18.7 0 01-.802.106 3.202 3.202 0 00-.611.139 1.053 1.053 0 00-.455.28c-.113.123-.17.292-.17.505 0 .29.108.511.323.66.218.147.494.22.828.22zm3.901 2.67v-7.5h.81v.867h.1a7.43 7.43 0 01.255-.362c.111-.15.27-.282.476-.398.208-.118.49-.177.845-.177.46 0 .864.115 1.215.344.35.23.623.555.82.977.197.421.295.918.295 1.491 0 .578-.098 1.079-.295 1.502a2.326 2.326 0 01-.817.98c-.348.23-.75.345-1.204.345-.35 0-.63-.058-.841-.174a1.56 1.56 0 01-.487-.401 5.368 5.368 0 01-.263-.377h-.07v2.884h-.839zm.824-4.772c0 .412.06.775.181 1.09.121.313.297.558.53.735.232.176.516.263.852.263.35 0 .642-.092.877-.277.237-.187.414-.438.533-.753.12-.317.18-.67.18-1.058 0-.383-.058-.73-.177-1.037a1.603 1.603 0 00-.529-.735c-.234-.182-.53-.273-.884-.273-.341 0-.628.086-.86.259-.232.17-.407.41-.525.717a2.948 2.948 0 00-.178 1.07zm5.27 2.727V6.468h.838v5.454h-.838zM20.8 5.56a.596.596 0 01-.422-.167.536.536 0 01-.174-.401c0-.157.058-.29.174-.402a.596.596 0 01.422-.167c.164 0 .303.056.42.167a.531.531 0 01.177.402c0 .156-.06.29-.178.4a.584.584 0 01-.419.168zm4.32.909v.71h-2.827v-.71h2.826zM23.115 5.16h.838v5.199c0 .237.034.414.102.533a.534.534 0 00.27.234c.112.038.229.057.352.057.092 0 .168-.005.227-.014l.142-.029.17.753a1.71 1.71 0 01-.237.064c-.102.024-.231.035-.387.035-.237 0-.469-.05-.696-.152a1.382 1.382 0 01-.561-.465c-.147-.209-.22-.472-.22-.789V5.161zm4.868 6.89c-.346 0-.66-.066-.941-.196a1.615 1.615 0 01-.671-.572c-.166-.25-.249-.554-.249-.909 0-.312.062-.566.185-.76.123-.196.288-.35.494-.462.206-.11.433-.194.681-.248a8.3 8.3 0 01.757-.135c.331-.043.6-.075.806-.096.208-.024.36-.063.454-.117.098-.055.146-.15.146-.284v-.029c0-.35-.096-.622-.288-.816-.189-.194-.477-.292-.863-.292-.4 0-.713.088-.94.263a1.553 1.553 0 00-.48.561l-.795-.284a1.91 1.91 0 01.568-.774c.239-.187.5-.317.781-.39.284-.076.563-.114.838-.114.175 0 .377.021.604.064.23.04.45.124.664.252.215.128.394.32.536.579.142.258.213.603.213 1.037v3.593h-.838v-.738h-.043a1.473 1.473 0 01-.284.38 1.64 1.64 0 01-.529.344c-.22.095-.489.142-.806.142zm.128-.754c.331 0 .61-.065.838-.195a1.33 1.33 0 00.696-1.154V9.18c-.036.043-.114.082-.234.117a3.952 3.952 0 01-.412.089 18.706 18.706 0 01-.803.106 3.202 3.202 0 00-.61.139 1.053 1.053 0 00-.455.28c-.114.123-.17.292-.17.505 0 .29.107.511.323.66.217.147.493.22.827.22zm4.74-6.647v7.272h-.838V4.65h.838zm4.347 7.272V6.468h.838v5.454H37.2zm.426-6.363a.596.596 0 01-.422-.167.536.536 0 01-.174-.401c0-.157.058-.29.174-.402a.596.596 0 01.422-.167c.164 0 .303.056.42.167a.531.531 0 01.177.402c0 .156-.06.29-.178.4a.584.584 0 01-.419.168zm5.811 2.13l-.753.213a1.395 1.395 0 00-.21-.365c-.09-.121-.212-.22-.369-.299a1.341 1.341 0 00-.6-.117c-.334 0-.612.077-.834.231-.22.152-.33.345-.33.579 0 .208.075.373.227.493.151.121.388.222.71.302l.81.2c.487.118.85.299 1.09.543.239.241.358.552.358.934 0 .312-.09.591-.27.838-.177.246-.426.44-.745.582-.32.142-.692.213-1.115.213-.557 0-1.017-.12-1.382-.362-.364-.242-.595-.594-.692-1.058l.795-.2c.076.294.22.514.43.661.213.147.491.22.835.22.39 0 .7-.083.93-.248.232-.168.348-.37.348-.604a.635.635 0 00-.199-.476c-.133-.13-.336-.227-.61-.29l-.91-.214c-.5-.118-.866-.302-1.1-.55-.233-.251-.349-.565-.349-.941 0-.308.087-.58.26-.817.175-.237.413-.423.713-.558a2.507 2.507 0 011.03-.202c.54 0 .964.118 1.272.355.31.237.53.55.66.937zm5.779 4.361c-.346 0-.66-.065-.942-.195a1.615 1.615 0 01-.67-.572c-.166-.25-.25-.554-.25-.909 0-.312.062-.566.185-.76.123-.196.288-.35.494-.462.206-.11.433-.194.682-.248.25-.057.503-.102.756-.135.332-.043.6-.075.806-.096.209-.024.36-.063.455-.117.097-.055.145-.15.145-.284v-.029c0-.35-.095-.622-.287-.816-.19-.194-.477-.292-.863-.292-.4 0-.714.088-.941.263a1.553 1.553 0 00-.48.561l-.795-.284a1.91 1.91 0 01.568-.774c.24-.187.5-.317.781-.39.285-.076.564-.114.838-.114.176 0 .377.021.604.064.23.04.451.124.664.252.216.128.394.32.536.579.143.258.214.603.214 1.037v3.593h-.839v-.738h-.042a1.473 1.473 0 01-.284.38c-.133.135-.31.25-.53.344-.22.095-.488.142-.805.142zm.127-.753c.332 0 .611-.065.839-.195a1.33 1.33 0 00.696-1.154V9.18c-.036.043-.114.082-.235.117a3.95 3.95 0 01-.412.089 18.706 18.706 0 01-.802.106 3.202 3.202 0 00-.611.139 1.053 1.053 0 00-.455.28c-.113.123-.17.292-.17.505 0 .29.108.511.323.66.218.147.494.22.827.22zm6.274-4.83v.711H52.79v-.71h2.826zm-2.002-1.306h.838v5.199c0 .237.034.414.103.533a.533.533 0 00.27.234c.11.038.228.057.351.057.092 0 .168-.005.227-.014l.142-.029.17.753a1.705 1.705 0 01-.237.064c-.102.024-.23.035-.387.035-.237 0-.469-.05-.696-.152a1.383 1.383 0 01-.561-.465c-.147-.209-.22-.472-.22-.789V5.161zm6.076 6.761V6.468h.81v.824h.056c.1-.27.28-.49.54-.657.26-.168.554-.252.88-.252a9.273 9.273 0 01.44.014v.852a2.485 2.485 0 00-.194-.032 1.922 1.922 0 00-.317-.025c-.265 0-.502.056-.71.167a1.225 1.225 0 00-.668 1.112v3.451h-.837zm3.72 0V6.468h.838v5.454h-.838zm.426-6.363a.596.596 0 01-.422-.167.536.536 0 01-.174-.401c0-.157.058-.29.174-.402a.596.596 0 01.422-.167c.164 0 .303.056.42.167a.531.531 0 01.177.402c0 .156-.06.29-.178.4a.584.584 0 01-.419.168zm5.81 2.13l-.752.213a1.4 1.4 0 00-.21-.365c-.09-.121-.212-.22-.369-.299a1.341 1.341 0 00-.6-.117c-.334 0-.612.077-.834.231-.22.152-.33.345-.33.579 0 .208.075.373.227.493.151.121.388.222.71.302l.81.2c.487.118.85.299 1.09.543.239.241.358.552.358.934 0 .312-.09.591-.27.838a1.79 1.79 0 01-.745.582c-.32.142-.692.213-1.115.213-.557 0-1.017-.12-1.382-.362-.364-.242-.595-.594-.692-1.058l.795-.2c.076.294.22.514.43.661.213.147.491.22.835.22.39 0 .7-.083.93-.248.232-.168.348-.37.348-.604a.634.634 0 00-.199-.476c-.133-.13-.336-.227-.61-.29l-.91-.214c-.5-.118-.866-.302-1.1-.55-.233-.251-.349-.565-.349-.941 0-.308.087-.58.26-.817.175-.237.413-.423.713-.558a2.506 2.506 0 011.03-.202c.54 0 .964.118 1.271.355.31.237.53.55.66.937zm2.143 2.245l-.014-1.037h.17l2.387-2.43h1.037L72.826 9.04h-.071l-.966.895zm-.781 1.988V4.65h.838v7.272h-.838zm3.466 0l-2.13-2.699.596-.582 2.6 3.281h-1.066zm2.584.057a.616.616 0 01-.45-.188.616.616 0 01-.19-.451c0-.175.064-.325.19-.451a.615.615 0 01.45-.188c.175 0 .326.063.451.188a.615.615 0 01.188.451.664.664 0 01-.32.554.61.61 0 01-.319.085z" fill="#fff"/></svg>